<svg xmlns="http://www.w3.org/2000/svg" width="133.825" height="53.617" viewBox="0 0 133.825 53.617">
  <g id="Group_12346" data-name="Group 12346" transform="translate(11011 -10063.34)">
    <g id="Packt_Logo-01" transform="translate(-11011 10063.34)">
      <path id="Path_11372" data-name="Path 11372" d="M1016.365,321.4h-4.475l5.72,6.921-5.72,6.92h4.475l5.358-6.92Z" transform="translate(-929.877 -316.634)" fill="#f97141"/>
      <path id="Path_11373" data-name="Path 11373" d="M824.368,321.4h4.475l-5.72,6.921,5.72,6.92h-4.475l-5.358-6.92Z" transform="translate(-758.162 -316.634)" fill="#f97141"/>
      <path id="Path_11374" data-name="Path 11374" d="M269.858,321.4h4.475l-5.72,6.921,5.72,6.92h-4.475l-5.358-6.92Z" transform="translate(-264.5 -316.634)" fill="#f97141"/>
      <path id="Path_11375" data-name="Path 11375" d="M518.442,320.6a4.9,4.9,0,0,0-1.348-1.005,5.755,5.755,0,0,0-2.664-.6,6.311,6.311,0,0,0-3.409.946,6.584,6.584,0,0,0-2.379,2.579,8.319,8.319,0,0,0,0,7.364,6.584,6.584,0,0,0,2.379,2.579,6.311,6.311,0,0,0,3.409.946,5.653,5.653,0,0,0,2.664-.616,5.087,5.087,0,0,0,1.348-1.013v1.342h3.731V319.277h-3.731Zm-.768,8.292a3.319,3.319,0,0,1-2.55,1.046,3.466,3.466,0,0,1-1.819-.472,3.28,3.28,0,0,1-1.232-1.317,4.152,4.152,0,0,1-.444-1.962,4.1,4.1,0,0,1,.444-1.935,3.277,3.277,0,0,1,1.232-1.317,3.466,3.466,0,0,1,1.819-.473,3.526,3.526,0,0,1,1.848.473,3.284,3.284,0,0,1,1.232,1.317,4.1,4.1,0,0,1,.439,1.935,3.809,3.809,0,0,1-.974,2.7Z" transform="translate(-481.086 -314.49)" fill="#f97141"/>
      <path id="Path_11376" data-name="Path 11376" d="M666.039,329.341a4.241,4.241,0,0,1-1.7.329,3.615,3.615,0,0,1-1.849-.473,3.414,3.414,0,0,1-1.289-1.317,3.894,3.894,0,0,1-.473-1.933,3.8,3.8,0,0,1,.473-1.935,3.476,3.476,0,0,1,1.289-1.289,3.621,3.621,0,0,1,1.849-.473,4.341,4.341,0,0,1,1.676.315,3.6,3.6,0,0,1,1.3.917l2.408-2.436a6.843,6.843,0,0,0-2.379-1.718,7.413,7.413,0,0,0-3.008-.6,7.6,7.6,0,0,0-3.8.96,7.026,7.026,0,0,0-3.654,6.29,7,7,0,0,0,3.64,6.246,7.656,7.656,0,0,0,3.811.946,7.429,7.429,0,0,0,3.008-.6,7.264,7.264,0,0,0,2.436-1.748l-2.436-2.436A3.585,3.585,0,0,1,666.039,329.341Z" transform="translate(-613.826 -314.252)" fill="#f97141"/>
      <path id="Path_11377" data-name="Path 11377" d="M791.574,289.957v-11.4H787.82v18.562h3.754V290.7" transform="translate(-730.395 -278.495)" fill="#f97141"/>
      <path id="Path_11378" data-name="Path 11378" d="M921.251,277.97H917.5v4.748H914.26v3.3H917.5v10.545h3.754V286.013h3.238v-3.3h-3.238Z" transform="translate(-842.96 -277.97)" fill="#f97141"/>
      <path id="Path_11379" data-name="Path 11379" d="M374.168,320.5a6.365,6.365,0,0,0-3.442-.946,5.639,5.639,0,0,0-2.679.63,5.416,5.416,0,0,0-1.247.9v-1.332H363.05v18.5h3.725v-5.8a5.241,5.241,0,0,0,1.261.893,5.825,5.825,0,0,0,2.69.617,6.364,6.364,0,0,0,3.439-.946,6.694,6.694,0,0,0,2.392-2.579,8.161,8.161,0,0,0,0-7.364,6.694,6.694,0,0,0-2.389-2.579Zm-1.017,8.21a3.251,3.251,0,0,1-1.247,1.317,3.539,3.539,0,0,1-1.837.473,3.456,3.456,0,0,1-1.816-.473,3.269,3.269,0,0,1-1.232-1.317,4.157,4.157,0,0,1-.444-1.963,4.092,4.092,0,0,1,.444-1.934,3.237,3.237,0,0,1,1.247-1.317,3.478,3.478,0,0,1,1.8-.475,3.538,3.538,0,0,1,1.834.473,3.251,3.251,0,0,1,1.247,1.317,4.092,4.092,0,0,1,.439,1.933A4.158,4.158,0,0,1,373.151,328.709Z" transform="translate(-352.236 -314.99)" fill="#f97141"/>
    </g>
    <path id="Path_11410" data-name="Path 11410" d="M.925,0l7.05-17.2H9.35L16.325,0H14.35L8.275-15.2H9L2.875,0ZM4.15-4.475V-6.1h9v1.625ZM23.15.25A4.93,4.93,0,0,1,20.6-.412a4.722,4.722,0,0,1-1.763-1.813,5.481,5.481,0,0,1-.637-2.7V-11.75h1.775V-5a4.256,4.256,0,0,0,.388,1.875,2.948,2.948,0,0,0,1.112,1.25,3.11,3.11,0,0,0,1.675.45A2.963,2.963,0,0,0,25.487-2.4,3.781,3.781,0,0,0,26.35-5v-6.75H28.1v6.825a5.662,5.662,0,0,1-.625,2.7A4.5,4.5,0,0,1,25.725-.4,5.053,5.053,0,0,1,23.15.25ZM33.125,0V-16.7h1.75V0ZM30.15-10.175V-11.75h7.675v1.575ZM48.7,0V-6.9a3.5,3.5,0,0,0-.913-2.513,3.17,3.17,0,0,0-2.412-.962,3.52,3.52,0,0,0-1.8.45A3.322,3.322,0,0,0,42.35-8.7a3.47,3.47,0,0,0-.45,1.775l-.8-.45a4.554,4.554,0,0,1,.625-2.375,4.516,4.516,0,0,1,1.688-1.65A4.871,4.871,0,0,1,45.85-12a4.674,4.674,0,0,1,2.4.613A4.309,4.309,0,0,1,49.888-9.7a5.131,5.131,0,0,1,.587,2.5V0ZM40.15,0V-17.7H41.9V0ZM59,.25a5.927,5.927,0,0,1-3.087-.825,6.122,6.122,0,0,1-2.2-2.225A6.112,6.112,0,0,1,52.9-5.925,5.93,5.93,0,0,1,53.713-9a6.084,6.084,0,0,1,2.2-2.187A6,6,0,0,1,59-12a6.05,6.05,0,0,1,3.1.8,5.986,5.986,0,0,1,2.187,2.188A6,6,0,0,1,65.1-5.925a6.092,6.092,0,0,1-.812,3.138A6.184,6.184,0,0,1,62.1-.575,5.908,5.908,0,0,1,59,.25Zm0-1.7a4.23,4.23,0,0,0,2.213-.575,4.146,4.146,0,0,0,1.525-1.6,4.7,4.7,0,0,0,.563-2.3,4.49,4.49,0,0,0-.562-2.262A4.222,4.222,0,0,0,61.213-9.75,4.23,4.23,0,0,0,59-10.325a4.249,4.249,0,0,0-2.2.575,4.1,4.1,0,0,0-1.525,1.563,4.571,4.571,0,0,0-.55,2.262,4.767,4.767,0,0,0,.55,2.313A4.051,4.051,0,0,0,56.8-2.025,4.249,4.249,0,0,0,59-1.45ZM67.8,0V-11.75h1.75V0Zm1.75-6.85-.725-.325A5.322,5.322,0,0,1,69.912-10.7,3.686,3.686,0,0,1,72.9-12a4,4,0,0,1,1.6.313,4.016,4.016,0,0,1,1.35.988L74.7-9.475a2.463,2.463,0,0,0-.937-.675,3.178,3.178,0,0,0-1.163-.2,2.91,2.91,0,0,0-2.2.887A3.638,3.638,0,0,0,69.55-6.85Z" transform="translate(-11011 10111.607)" fill="#fff"/>
    <path id="Path_11411" data-name="Path 11411" d="M6.9.25A8.353,8.353,0,0,1,3.263-.475,8.273,8.273,0,0,1,.525-2.65L2.775-4.9a5.683,5.683,0,0,0,1.8,1.588,5.132,5.132,0,0,0,2.5.562,3.757,3.757,0,0,0,2.113-.525,1.652,1.652,0,0,0,.787-1.45,1.869,1.869,0,0,0-.45-1.3,3.713,3.713,0,0,0-1.188-.85,13.486,13.486,0,0,0-1.625-.638Q5.825-7.8,4.938-8.175a7.443,7.443,0,0,1-1.625-.937,4.152,4.152,0,0,1-1.187-1.45,4.928,4.928,0,0,1-.45-2.238,4.686,4.686,0,0,1,.775-2.725A4.959,4.959,0,0,1,4.575-17.25a7.434,7.434,0,0,1,3.05-.6,7.61,7.61,0,0,1,3.25.675,6.942,6.942,0,0,1,2.375,1.75L11-13.175a5.445,5.445,0,0,0-1.587-1.25,4.105,4.105,0,0,0-1.838-.4,3.3,3.3,0,0,0-1.85.45,1.467,1.467,0,0,0-.675,1.3A1.589,1.589,0,0,0,5.5-11.9a3.859,3.859,0,0,0,1.188.775q.737.325,1.625.625t1.775.675a6.681,6.681,0,0,1,1.625.975A4.4,4.4,0,0,1,12.9-7.312,5.321,5.321,0,0,1,13.35-5a4.689,4.689,0,0,1-1.725,3.85A7.29,7.29,0,0,1,6.9.25ZM15.6,0V-12.075h3.3V0Zm1.65-14.025a1.774,1.774,0,0,1-1.325-.538A1.838,1.838,0,0,1,15.4-15.9a1.85,1.85,0,0,1,.525-1.325,1.754,1.754,0,0,1,1.325-.55,1.744,1.744,0,0,1,1.337.55A1.875,1.875,0,0,1,19.1-15.9a1.863,1.863,0,0,1-.512,1.337A1.764,1.764,0,0,1,17.25-14.025ZM26.775,5.35a7.965,7.965,0,0,1-3.4-.687,5.787,5.787,0,0,1-2.35-1.938L23.1.65a5.046,5.046,0,0,0,1.563,1.262,4.572,4.572,0,0,0,2.087.438,3.541,3.541,0,0,0,2.413-.775,2.7,2.7,0,0,0,.887-2.15V-3.6l.55-2.65L30.075-8.9v-3.175h3.25V-.625a5.788,5.788,0,0,1-.838,3.138A5.728,5.728,0,0,1,30.175,4.6,7.4,7.4,0,0,1,26.775,5.35Zm-.15-5.675A5.534,5.534,0,0,1,23.7-1.113a5.535,5.535,0,0,1-2.037-2.162,6.4,6.4,0,0,1-.738-3.075,6.257,6.257,0,0,1,.738-3.05A5.582,5.582,0,0,1,23.7-11.537a5.534,5.534,0,0,1,2.925-.788,5.217,5.217,0,0,1,2.388.525,4.165,4.165,0,0,1,1.637,1.438,4.117,4.117,0,0,1,.65,2.137v3.8a4.147,4.147,0,0,1-.662,2.138,4.1,4.1,0,0,1-1.65,1.45A5.265,5.265,0,0,1,26.625-.325Zm.65-2.975a3.04,3.04,0,0,0,1.563-.387,2.74,2.74,0,0,0,1.038-1.075,3.21,3.21,0,0,0,.375-1.562A3.191,3.191,0,0,0,29.875-7.9a2.763,2.763,0,0,0-1.038-1.062,3.04,3.04,0,0,0-1.562-.388,3.108,3.108,0,0,0-1.575.388,2.714,2.714,0,0,0-1.05,1.075,3.21,3.21,0,0,0-.375,1.563,3.158,3.158,0,0,0,.375,1.537A2.8,2.8,0,0,0,25.7-3.7,3.031,3.031,0,0,0,27.275-3.3ZM44.25,0V-6.925a2.368,2.368,0,0,0-.675-1.75,2.368,2.368,0,0,0-1.75-.675,2.568,2.568,0,0,0-1.25.3,2.17,2.17,0,0,0-.863.85A2.536,2.536,0,0,0,39.4-6.925l-1.275-.65a4.974,4.974,0,0,1,.6-2.487,4.307,4.307,0,0,1,1.662-1.663,4.871,4.871,0,0,1,2.438-.6,4.871,4.871,0,0,1,2.437.6,4.332,4.332,0,0,1,1.663,1.65,4.8,4.8,0,0,1,.6,2.425V0ZM36.125,0V-18.075H39.4V0Zm15.6,0V-17.1H55V0ZM48.9-9.2v-2.875h8.925V-9.2Z" transform="translate(-10935 10111.607)" fill="#f97141"/>
  </g>
</svg>
