<svg xmlns="http://www.w3.org/2000/svg" viewBox="0 0 559.3 464.1">
	<polygon fill="#f97141" points="384.3,169.4 343.5,169.4 395.7,232.5 343.5,295.5 384.3,295.5 433.1,232.5 "/>
	<polygon fill="#f97141" points="175,169.4 215.7,169.4 163.6,232.5 215.7,295.5 175,295.5 126.1,232.5 "/>
	<path fill="#f97141" d="M326,176.2c-9.4-5.8-20.3-8.8-31.4-8.6c-8.5-0.1-16.9,1.8-24.4,5.7c-4.2,2.2-8,5-11.4,8.2v-12.1h-34.2V338h34 v-52.9c3.4,3.3,7.3,6,11.5,8.1c7.6,3.8,16,5.7,24.5,5.6c11.1,0.2,21.9-2.8,31.3-8.6c9.2-5.7,16.8-13.9,21.8-23.5 c5.4-10.3,8.2-21.8,8-33.4c0-12.5-2.7-23.8-8-33.7C342.7,190,335.2,181.9,326,176.2z M316.7,251c-2.6,5-6.5,9.2-11.4,12 c-5.1,2.9-10.9,4.4-16.7,4.3c-5.8,0.1-11.5-1.4-16.5-4.3c-4.8-2.9-8.7-7-11.2-12c-2.8-5.5-4.2-11.7-4-17.9c-0.1-6.1,1.3-12.2,4-17.6 c2.6-5,6.5-9.2,11.4-12c5-2.9,10.7-4.4,16.4-4.3c5.9-0.1,11.6,1.4,16.7,4.3c4.8,2.8,8.8,7,11.4,12c2.8,5.5,4.1,11.5,4,17.6 C320.9,239.3,319.5,245.4,316.7,251z"/>
</svg>
