<svg xmlns="http://www.w3.org/2000/svg" width="166.703" height="67.388" viewBox="0 0 166.703 67.388">
  <g id="Group_12345" data-name="Group 12345" transform="translate(-616 -90.948)">
    <g id="Packt_Logo-01" transform="translate(616 90.948)">
      <path id="Path_11372" data-name="Path 11372" d="M1017.613,321.4h-5.723l7.316,8.851-7.316,8.849h5.723l6.852-8.849Z" transform="translate(-907.009 -315.305)" fill="#f97141"/>
      <path id="Path_11373" data-name="Path 11373" d="M825.862,321.4h5.723l-7.315,8.851,7.315,8.849h-5.723l-6.852-8.849Z" transform="translate(-741.196 -315.305)" fill="#f97141"/>
      <path id="Path_11374" data-name="Path 11374" d="M271.352,321.4h5.723l-7.315,8.851,7.315,8.849h-5.723l-6.852-8.849Z" transform="translate(-264.5 -315.305)" fill="#f97141"/>
      <path id="Path_11375" data-name="Path 11375" d="M521.415,321.046a6.271,6.271,0,0,0-1.723-1.285,7.361,7.361,0,0,0-3.407-.768,8.071,8.071,0,0,0-4.36,1.21,8.42,8.42,0,0,0-3.042,3.3,10.639,10.639,0,0,0,0,9.418,8.42,8.42,0,0,0,3.042,3.3,8.07,8.07,0,0,0,4.36,1.21,7.229,7.229,0,0,0,3.407-.787,6.5,6.5,0,0,0,1.723-1.3v1.716h4.771v-17.7h-4.771Zm-.982,10.6a4.244,4.244,0,0,1-3.261,1.337,4.433,4.433,0,0,1-2.327-.6,4.194,4.194,0,0,1-1.576-1.684,5.31,5.31,0,0,1-.568-2.509,5.239,5.239,0,0,1,.568-2.474,4.19,4.19,0,0,1,1.576-1.684,4.432,4.432,0,0,1,2.327-.6,4.509,4.509,0,0,1,2.363.6,4.2,4.2,0,0,1,1.576,1.684,5.239,5.239,0,0,1,.561,2.474,4.871,4.871,0,0,1-1.246,3.459Z" transform="translate(-473.642 -313.235)" fill="#f97141"/>
      <path id="Path_11376" data-name="Path 11376" d="M668.592,332.3a5.423,5.423,0,0,1-2.179.421,4.623,4.623,0,0,1-2.365-.6,4.365,4.365,0,0,1-1.649-1.684,4.979,4.979,0,0,1-.6-2.473,4.856,4.856,0,0,1,.6-2.474,4.445,4.445,0,0,1,1.649-1.649,4.631,4.631,0,0,1,2.365-.6,5.552,5.552,0,0,1,2.143.4,4.6,4.6,0,0,1,1.667,1.173l3.079-3.115a8.752,8.752,0,0,0-3.042-2.2,9.48,9.48,0,0,0-3.846-.77,9.724,9.724,0,0,0-4.855,1.228A8.986,8.986,0,0,0,656.884,328a8.957,8.957,0,0,0,4.655,7.988,9.791,9.791,0,0,0,4.874,1.21,9.5,9.5,0,0,0,3.846-.769,9.289,9.289,0,0,0,3.115-2.235l-3.115-3.115A4.585,4.585,0,0,1,668.592,332.3Z" transform="translate(-601.82 -313.005)" fill="#f97141"/>
      <path id="Path_11377" data-name="Path 11377" d="M792.621,293.135V278.56h-4.8V302.3h4.8v-8.215" transform="translate(-714.383 -278.477)" fill="#f97141"/>
      <path id="Path_11378" data-name="Path 11378" d="M923.2,277.97h-4.8v6.072h-4.14v4.214h4.14v13.486h4.8V288.256h4.141v-4.214H923.2Z" transform="translate(-823.079 -277.97)" fill="#f97141"/>
      <path id="Path_11379" data-name="Path 11379" d="M377.268,320.763a8.139,8.139,0,0,0-4.4-1.21,7.212,7.212,0,0,0-3.425.805,6.926,6.926,0,0,0-1.594,1.156v-1.7h-4.8v23.66h4.764v-7.417a6.7,6.7,0,0,0,1.612,1.142,7.449,7.449,0,0,0,3.439.789,8.139,8.139,0,0,0,4.4-1.21,8.56,8.56,0,0,0,3.059-3.3,10.436,10.436,0,0,0,0-9.418,8.56,8.56,0,0,0-3.055-3.3Zm-1.3,10.5a4.157,4.157,0,0,1-1.594,1.684,4.526,4.526,0,0,1-2.349.6,4.42,4.42,0,0,1-2.322-.6,4.18,4.18,0,0,1-1.576-1.684,5.316,5.316,0,0,1-.568-2.51,5.233,5.233,0,0,1,.568-2.473,4.139,4.139,0,0,1,1.594-1.684,4.448,4.448,0,0,1,2.3-.608,4.526,4.526,0,0,1,2.345.6,4.158,4.158,0,0,1,1.594,1.684,5.233,5.233,0,0,1,.561,2.473A5.317,5.317,0,0,1,375.967,331.263Z" transform="translate(-349.22 -313.717)" fill="#f97141"/>
    </g>
    <path id="Path_11409" data-name="Path 11409" d="M1.147,0,9.889-21.328h1.705L20.243,0H17.794L10.261-18.848h.9L3.565,0Zm4-5.549V-7.564h11.16v2.015ZM28.706.31a6.113,6.113,0,0,1-3.162-.822,5.855,5.855,0,0,1-2.186-2.248,6.8,6.8,0,0,1-.79-3.348V-14.57h2.2V-6.2a5.278,5.278,0,0,0,.48,2.325,3.656,3.656,0,0,0,1.379,1.55,3.857,3.857,0,0,0,2.077.558,3.674,3.674,0,0,0,2.9-1.209A4.688,4.688,0,0,0,32.674-6.2v-8.37h2.17v8.463a7.021,7.021,0,0,1-.775,3.348A5.585,5.585,0,0,1,31.9-.5,6.266,6.266,0,0,1,28.706.31ZM41.075,0V-20.708h2.17V0ZM37.386-12.617V-14.57H46.9v1.953ZM60.388,0V-8.556a4.342,4.342,0,0,0-1.132-3.116,3.93,3.93,0,0,0-2.992-1.193,4.364,4.364,0,0,0-2.232.558,4.12,4.12,0,0,0-1.519,1.519,4.3,4.3,0,0,0-.558,2.2l-.992-.558a5.647,5.647,0,0,1,.775-2.945,5.6,5.6,0,0,1,2.092-2.046,6.04,6.04,0,0,1,3.023-.744,5.8,5.8,0,0,1,2.976.759,5.343,5.343,0,0,1,2.031,2.093,6.363,6.363,0,0,1,.728,3.1V0Zm-10.6,0V-21.948h2.17V0ZM73.16.31A7.349,7.349,0,0,1,69.332-.713,7.591,7.591,0,0,1,66.6-3.472,7.578,7.578,0,0,1,65.6-7.347,7.354,7.354,0,0,1,66.6-11.16a7.544,7.544,0,0,1,2.728-2.712A7.436,7.436,0,0,1,73.16-14.88,7.5,7.5,0,0,1,77-13.888a7.423,7.423,0,0,1,2.713,2.713,7.436,7.436,0,0,1,1.007,3.828,7.555,7.555,0,0,1-1.007,3.891A7.668,7.668,0,0,1,77-.713,7.326,7.326,0,0,1,73.16.31Zm0-2.108A5.246,5.246,0,0,0,75.9-2.511a5.141,5.141,0,0,0,1.891-1.984,5.829,5.829,0,0,0,.7-2.852,5.568,5.568,0,0,0-.7-2.805A5.235,5.235,0,0,0,75.9-12.09,5.246,5.246,0,0,0,73.16-12.8a5.268,5.268,0,0,0-2.728.713,5.082,5.082,0,0,0-1.891,1.938,5.668,5.668,0,0,0-.682,2.805,5.91,5.91,0,0,0,.682,2.867,5.023,5.023,0,0,0,1.891,1.969A5.268,5.268,0,0,0,73.16-1.8ZM84.072,0V-14.57h2.17V0Zm2.17-8.494-.9-.4a6.6,6.6,0,0,1,1.349-4.371,4.571,4.571,0,0,1,3.7-1.612,4.96,4.96,0,0,1,1.984.387,4.98,4.98,0,0,1,1.674,1.225l-1.426,1.519a3.055,3.055,0,0,0-1.163-.837,3.941,3.941,0,0,0-1.441-.248,3.608,3.608,0,0,0-2.728,1.1A4.511,4.511,0,0,0,86.242-8.494Z" transform="translate(616 151.702)" fill="#2b2b2b"/>
    <path id="Path_11408" data-name="Path 11408" d="M8.556.31a10.358,10.358,0,0,1-4.51-.9,10.258,10.258,0,0,1-3.395-2.7l2.79-2.79A7.047,7.047,0,0,0,5.673-4.107a6.364,6.364,0,0,0,3.1.7,4.659,4.659,0,0,0,2.62-.651,2.049,2.049,0,0,0,.976-1.8,2.318,2.318,0,0,0-.558-1.612,4.6,4.6,0,0,0-1.473-1.054,16.722,16.722,0,0,0-2.015-.79q-1.1-.356-2.2-.821A9.229,9.229,0,0,1,4.107-11.3a5.149,5.149,0,0,1-1.472-1.8,6.111,6.111,0,0,1-.558-2.774,5.81,5.81,0,0,1,.961-3.379A6.149,6.149,0,0,1,5.673-21.39a9.218,9.218,0,0,1,3.782-.744,9.436,9.436,0,0,1,4.03.837,8.608,8.608,0,0,1,2.945,2.17l-2.79,2.79a6.752,6.752,0,0,0-1.969-1.55,5.091,5.091,0,0,0-2.279-.5,4.094,4.094,0,0,0-2.294.558,1.819,1.819,0,0,0-.837,1.612,1.971,1.971,0,0,0,.558,1.457,4.785,4.785,0,0,0,1.473.961q.914.4,2.015.775t2.2.837a8.285,8.285,0,0,1,2.015,1.209A5.458,5.458,0,0,1,16-9.068,6.6,6.6,0,0,1,16.554-6.2a5.814,5.814,0,0,1-2.139,4.774A9.04,9.04,0,0,1,8.556.31ZM19.344,0V-14.973h4.092V0ZM21.39-17.391a2.2,2.2,0,0,1-1.643-.667,2.279,2.279,0,0,1-.651-1.659,2.294,2.294,0,0,1,.651-1.643,2.175,2.175,0,0,1,1.643-.682,2.162,2.162,0,0,1,1.659.682,2.324,2.324,0,0,1,.635,1.643,2.31,2.31,0,0,1-.635,1.659A2.187,2.187,0,0,1,21.39-17.391ZM33.2,6.634a9.877,9.877,0,0,1-4.216-.852,7.175,7.175,0,0,1-2.914-2.4L28.644.806a6.257,6.257,0,0,0,1.938,1.566,5.669,5.669,0,0,0,2.589.542,4.391,4.391,0,0,0,2.991-.961,3.353,3.353,0,0,0,1.1-2.666V-4.464l.682-3.286-.651-3.286v-3.937h4.03v14.2a7.177,7.177,0,0,1-1.039,3.891A7.1,7.1,0,0,1,37.417,5.7,9.177,9.177,0,0,1,33.2,6.634ZM33.015-.4a6.862,6.862,0,0,1-3.627-.977,6.864,6.864,0,0,1-2.527-2.681,7.937,7.937,0,0,1-.914-3.813,7.758,7.758,0,0,1,.914-3.782,6.922,6.922,0,0,1,2.527-2.651,6.862,6.862,0,0,1,3.627-.977,6.47,6.47,0,0,1,2.961.651,5.165,5.165,0,0,1,2.03,1.783,5.106,5.106,0,0,1,.806,2.651v4.712a5.142,5.142,0,0,1-.821,2.651,5.08,5.08,0,0,1-2.046,1.8A6.529,6.529,0,0,1,33.015-.4Zm.806-3.689a3.769,3.769,0,0,0,1.938-.48,3.4,3.4,0,0,0,1.287-1.333,3.98,3.98,0,0,0,.465-1.937A3.956,3.956,0,0,0,37.045-9.8a3.426,3.426,0,0,0-1.287-1.318,3.769,3.769,0,0,0-1.937-.481,3.854,3.854,0,0,0-1.953.481,3.366,3.366,0,0,0-1.3,1.333A3.98,3.98,0,0,0,30.1-7.843a3.915,3.915,0,0,0,.465,1.907,3.474,3.474,0,0,0,1.3,1.348A3.759,3.759,0,0,0,33.821-4.092ZM54.87,0V-8.587a2.936,2.936,0,0,0-.837-2.17,2.936,2.936,0,0,0-2.17-.837,3.184,3.184,0,0,0-1.55.372,2.69,2.69,0,0,0-1.07,1.054,3.145,3.145,0,0,0-.387,1.581l-1.581-.806a6.168,6.168,0,0,1,.744-3.085,5.341,5.341,0,0,1,2.062-2.062,6.04,6.04,0,0,1,3.022-.744,6.04,6.04,0,0,1,3.023.744,5.372,5.372,0,0,1,2.062,2.046,5.954,5.954,0,0,1,.744,3.007V0ZM44.8,0V-22.413h4.061V0ZM64.139,0V-21.2H68.2V0Zm-3.5-11.408v-3.565H71.7v3.565Z" transform="translate(711 151.702)" fill="#f97141"/>
  </g>
</svg>
