<?xml version="1.0" encoding="utf-8"?>
<!-- Generator: Adobe Illustrator 25.2.3, SVG Export Plug-In . SVG Version: 6.00 Build 0)  -->
<svg version="1.1" id="a9e8e605-cb92-49cd-a24b-c5697472a325"
	 xmlns="http://www.w3.org/2000/svg" viewBox="0 0 433.2 170.4"
	 style="enable-background:new 0 0 433.2 170.4;" xml:space="preserve">
<style type="text/css">
	.st0{fill:#FFFFFF;}
</style>
<polygon class="st0" points="258.2,1.8 217.4,1.8 269.6,64.9 217.4,127.9 258.2,127.9 307,64.9 "/>
<polygon class="st0" points="48.9,1.8 89.6,1.8 37.5,64.9 89.6,127.9 48.9,127.9 0,64.9 "/>
<path class="st0" d="M199.9,8.6c-9.4-5.8-20.3-8.8-31.4-8.6c-8.5-0.1-16.9,1.8-24.4,5.7c-4.2,2.2-8,5-11.4,8.2V1.8H98.5v168.6h34
	v-52.9c3.4,3.3,7.3,6,11.5,8.1c7.6,3.8,16,5.7,24.5,5.6c11.1,0.2,21.9-2.8,31.3-8.6c9.2-5.7,16.8-13.9,21.8-23.5
	c5.4-10.3,8.2-21.8,8-33.4c0-12.5-2.7-23.8-8-33.7C216.6,22.4,209.1,14.3,199.9,8.6z M190.6,83.4c-2.6,5-6.5,9.2-11.4,12
	c-5.1,2.9-10.9,4.4-16.7,4.3c-5.8,0.1-11.5-1.4-16.5-4.3c-4.8-2.9-8.7-7-11.2-12c-2.8-5.5-4.2-11.7-4-17.9c-0.1-6.1,1.3-12.2,4-17.6
	c2.6-5,6.5-9.2,11.4-12c5-2.9,10.7-4.4,16.4-4.3c5.9-0.1,11.6,1.4,16.7,4.3c4.8,2.8,8.8,7,11.4,12c2.8,5.5,4.1,11.5,4,17.6
	C194.8,71.7,193.4,77.8,190.6,83.4z"/>
</svg>
