<?xml version="1.0" encoding="utf-8"?>
<!-- Generator: Adobe Illustrator 25.2.3, SVG Export Plug-In . SVG Version: 6.00 Build 0)  -->
<svg version="1.1" id="bfb13a71-67f9-4bb7-85b9-62e6cf4a7779"
	 xmlns="http://www.w3.org/2000/svg" viewBox="0 0 1089.3 464.3"
	 style="enable-background:new 0 0 1089.3 464.3;" xml:space="preserve">
<style type="text/css">
	.st0{fill:#202020;}
	.st1{fill:#FFFFFF;}
</style>
<rect class="st0" width="1089.3" height="464.3"/>
<polygon class="st1" points="914.3,169.6 873.5,169.6 925.7,232.6 873.5,295.7 914.3,295.7 963.1,232.6 "/>
<polygon class="st1" points="729.5,169.6 770.2,169.6 718.1,232.6 770.2,295.7 729.5,295.7 680.6,232.6 "/>
<polygon class="st1" points="175,169.6 215.7,169.6 163.6,232.6 215.7,295.7 175,295.7 126.1,232.6 "/>
<path class="st1" d="M466.6,181.8c-3.5-3.7-7.7-6.8-12.3-9.2c-7.5-3.7-15.9-5.6-24.3-5.5c-11-0.1-21.7,2.8-31.1,8.6
	c-9.2,5.7-16.7,13.8-21.7,23.5c-5.2,9.9-7.8,21.2-7.8,33.7c-0.2,11.6,2.5,23.1,7.8,33.4c5,9.7,12.5,17.8,21.7,23.5
	c9.3,5.8,20.1,8.8,31.1,8.6c8.4,0.1,16.8-1.8,24.3-5.6c4.6-2.4,8.7-5.5,12.3-9.2v12.2h34V169.8h-34L466.6,181.8z M459.6,257.4
	c-5.9,6.4-13.7,9.5-23.2,9.5c-5.8,0.1-11.6-1.4-16.6-4.3c-4.8-2.9-8.7-7-11.2-12c-2.8-5.5-4.2-11.7-4-17.9c-0.1-6.1,1.3-12.2,4-17.6
	c2.5-5,6.4-9.1,11.2-12c5-2.9,10.8-4.4,16.6-4.3c5.9-0.1,11.7,1.4,16.8,4.3c4.8,2.9,8.7,7,11.2,12c2.8,5.5,4.1,11.5,4,17.6
	C468.4,242.8,465.4,251,459.6,257.4L459.6,257.4z"/>
<path class="st1" d="M602,263.6c-4.9,2.1-10.2,3.1-15.5,3c-5.9,0.1-11.7-1.4-16.8-4.3c-4.9-2.8-9-7-11.8-12
	c-2.9-5.4-4.4-11.5-4.3-17.6c-0.2-6.2,1.3-12.2,4.3-17.6c2.8-4.9,6.9-8.9,11.8-11.8c5.1-2.9,10.9-4.4,16.8-4.3
	c5.2-0.1,10.4,0.9,15.3,2.9c4.5,1.9,8.6,4.7,11.9,8.4l21.9-22.2c-6-6.7-13.4-12.1-21.7-15.7c-8.7-3.7-18-5.6-27.4-5.5
	c-12.1-0.2-24,2.9-34.6,8.8c-10.1,5.6-18.5,13.7-24.4,23.6c-5.9,9.9-8.9,21.2-8.9,33.7c-0.3,23.7,12.4,45.6,33.2,56.9
	c10.3,5.8,21.8,8.6,34.7,8.6c9.4,0.1,18.8-1.8,27.4-5.5c8.4-3.7,16-9.1,22.2-15.9l-22.2-22.2C610.6,258.7,606.5,261.7,602,263.6z"/>
<polyline class="st1" points="683.7,230.6 683.7,126.7 649.5,126.7 649.5,295.9 683.7,295.9 683.7,237.3 "/>
<polygon class="st1" points="839.6,126.1 805.4,126.1 805.4,169.4 775.9,169.4 775.9,199.4 805.4,199.4 805.4,295.5 839.6,295.5 
	839.6,199.4 869.1,199.4 869.1,169.4 839.6,169.4 "/>
<path class="st1" d="M326,176.3c-9.4-5.8-20.3-8.8-31.4-8.6c-8.5-0.1-16.9,1.8-24.4,5.7c-4.2,2.2-8,5-11.4,8.2v-12.1h-34.2v168.6h34
	v-52.9c3.4,3.3,7.3,6,11.5,8.1c7.6,3.8,16,5.7,24.5,5.6c11.1,0.2,21.9-2.8,31.3-8.6c9.2-5.7,16.8-13.9,21.8-23.5
	c5.4-10.3,8.2-21.8,8-33.4c0-12.5-2.7-23.8-8-33.7C342.7,190.2,335.2,182.1,326,176.3z M316.7,251.2c-2.6,5-6.5,9.2-11.4,12
	c-5.1,2.9-10.9,4.4-16.7,4.3c-5.8,0.1-11.5-1.4-16.5-4.3c-4.8-2.9-8.7-7-11.2-12c-2.8-5.5-4.2-11.7-4-17.9c-0.1-6.1,1.3-12.2,4-17.6
	c2.6-5,6.5-9.2,11.4-12c5-2.9,10.7-4.4,16.4-4.3c5.9-0.1,11.6,1.4,16.7,4.3c4.8,2.8,8.8,7,11.4,12c2.8,5.5,4.1,11.5,4,17.6
	C320.9,239.5,319.5,245.6,316.7,251.2z"/>
</svg>
