<?xml version="1.0" encoding="utf-8"?>
<!-- Generator: Adobe Illustrator 25.2.3, SVG Export Plug-In . SVG Version: 6.00 Build 0)  -->
<svg
	 xmlns="http://www.w3.org/2000/svg" viewBox="0 0 837 212"
	>
<style type="text/css">
	.st0{fill:#F97141;}
	.st1{fill:none;}
</style>
<polygon class="st0" points="788.2,43.5 747.4,43.5 799.6,106.5 747.4,169.6 788.2,169.6 837,106.5 "/>
<polygon class="st0" points="603.4,43.5 644.1,43.5 592,106.5 644.1,169.6 603.4,169.6 554.5,106.5 "/>
<polygon class="st0" points="48.9,43.5 89.6,43.5 37.5,106.5 89.6,169.6 48.9,169.6 0,106.5 "/>
<path class="st0" d="M340.5,55.7c-3.5-3.7-7.7-6.8-12.3-9.2c-7.5-3.7-15.9-5.6-24.3-5.5c-11-0.1-21.7,2.8-31.1,8.6
	c-9.2,5.7-16.7,13.8-21.7,23.5c-5.2,9.9-7.8,21.2-7.8,33.7c-0.2,11.6,2.5,23.1,7.8,33.4c5,9.7,12.5,17.8,21.7,23.5
	c9.3,5.8,20.1,8.8,31.1,8.6c8.4,0.1,16.8-1.8,24.3-5.6c4.6-2.4,8.7-5.5,12.3-9.2v12.2h34v-126h-34V55.7z M333.5,131.3
	c-5.9,6.4-13.7,9.5-23.2,9.5c-5.8,0.1-11.6-1.4-16.6-4.3c-4.8-2.9-8.7-7-11.2-12c-2.8-5.5-4.2-11.7-4-17.9c-0.1-6.1,1.3-12.2,4-17.6
	c2.5-5,6.4-9.1,11.2-12c5-2.9,10.8-4.4,16.6-4.3c5.9-0.1,11.7,1.4,16.8,4.3c4.8,2.9,8.7,7,11.2,12c2.8,5.5,4.1,11.5,4,17.6
	C342.3,116.7,339.3,124.9,333.5,131.3L333.5,131.3z"/>
<path class="st0" d="M475.9,137.5c-4.9,2.1-10.2,3.1-15.5,3c-5.9,0.1-11.7-1.4-16.8-4.3c-4.9-2.8-9-7-11.8-12
	c-2.9-5.4-4.4-11.5-4.3-17.6c-0.2-6.2,1.3-12.2,4.3-17.6c2.8-4.9,6.9-8.9,11.8-11.8c5.1-2.9,10.9-4.4,16.8-4.3
	c5.2-0.1,10.4,0.9,15.3,2.9c4.5,1.9,8.6,4.7,11.9,8.4L509.5,62c-6-6.7-13.4-12.1-21.7-15.7c-8.7-3.7-18-5.6-27.4-5.5
	c-12.1-0.2-24,2.9-34.6,8.8c-10.1,5.6-18.5,13.7-24.4,23.6s-8.9,21.2-8.9,33.7c-0.3,23.7,12.4,45.6,33.2,56.9
	c10.3,5.8,21.8,8.6,34.7,8.6c9.4,0.1,18.8-1.8,27.4-5.5c8.4-3.7,16-9.1,22.2-15.9l-22.2-22.2C484.5,132.6,480.4,135.6,475.9,137.5z"
	/>
<polyline class="st0" points="557.6,104.5 557.6,0.6 523.4,0.6 523.4,169.8 557.6,169.8 557.6,111.2 "/>
<polygon class="st0" points="713.5,0 679.3,0 679.3,43.3 649.8,43.3 649.8,73.3 679.3,73.3 679.3,169.4 713.5,169.4 713.5,73.3 
	743,73.3 743,43.3 713.5,43.3 "/>
<path class="st0" d="M199.9,50.2c-9.4-5.8-20.3-8.8-31.4-8.6c-8.5-0.1-16.9,1.8-24.4,5.7c-4.2,2.2-8,5-11.4,8.2V43.4H98.5V212h34
	v-52.9c3.4,3.3,7.3,6,11.5,8.1c7.6,3.8,16,5.7,24.5,5.6c11.1,0.2,21.9-2.8,31.3-8.6c9.2-5.7,16.8-13.9,21.8-23.5
	c5.4-10.3,8.2-21.8,8-33.4c0-12.5-2.7-23.8-8-33.7C216.6,64.1,209.1,56,199.9,50.2z M190.6,125.1c-2.6,5-6.5,9.2-11.4,12
	c-5.1,2.9-10.9,4.4-16.7,4.3c-5.8,0.1-11.5-1.4-16.5-4.3c-4.8-2.9-8.7-7-11.2-12c-2.8-5.5-4.2-11.7-4-17.9c-0.1-6.1,1.3-12.2,4-17.6
	c2.6-5,6.5-9.2,11.4-12c5-2.9,10.7-4.4,16.4-4.3c5.9-0.1,11.6,1.4,16.7,4.3c4.8,2.8,8.8,7,11.4,12c2.8,5.5,4.1,11.5,4,17.6
	C194.8,113.4,193.4,119.5,190.6,125.1z"/>
<rect x="-126.1" y="-126.1" class="st1" width="1087.5" height="464.3"/>
</svg>
