<?xml version="1.0" standalone="no"?>
<!DOCTYPE svg PUBLIC "-//W3C//DTD SVG 20010904//EN"
 "http://www.w3.org/TR/2001/REC-SVG-20010904/DTD/svg10.dtd">
<svg version="1.0" xmlns="http://www.w3.org/2000/svg"
 width="700.000000pt" height="700.000000pt" viewBox="0 0 700.000000 700.000000"
 preserveAspectRatio="xMidYMid meet">
<metadata>
Created by potrace 1.14, written by Peter Selinger 2001-2017
</metadata>
<g transform="translate(0.000000,700.000000) scale(0.100000,-0.100000)"
fill="#f97141" stroke="none">
<path d="M3770 5342 c-275 -20 -522 -118 -698 -277 -19 -16 -37 -30 -40 -30
-3 0 -6 59 -7 130 l0 130 -180 5 c-99 3 -274 3 -390 0 l-210 -5 0 -1912 c1
-1052 4 -1916 8 -1920 4 -4 178 -7 387 -7 l380 -1 0 603 0 602 81 -64 c145
-115 316 -189 522 -226 78 -14 138 -18 257 -15 85 2 166 6 180 9 14 4 41 9 60
12 132 22 347 111 471 194 321 216 532 543 615 955 35 171 37 424 5 615 -37
218 -123 436 -244 615 -56 82 -77 106 -183 211 -238 235 -549 366 -894 377
-47 1 -101 1 -120 -1z m97 -736 c274 -58 464 -240 543 -518 29 -99 35 -285 15
-402 -66 -378 -341 -614 -717 -614 -341 -1 -597 192 -692 519 -26 90 -27 98
-30 228 -10 403 190 692 539 780 91 23 249 26 342 7z"/>
<path d="M1409 5302 l-296 -2 -209 -271 c-115 -149 -229 -297 -254 -328 -25
-32 -80 -102 -122 -157 -42 -54 -178 -229 -302 -389 -249 -321 -234 -290 -176
-358 10 -12 102 -130 205 -262 102 -132 191 -247 198 -255 6 -8 42 -53 78
-100 267 -346 484 -626 489 -630 3 -3 24 -31 48 -62 23 -32 48 -58 55 -59 22
-2 917 -4 917 -2 0 1 -35 44 -77 96 -43 51 -94 113 -113 137 -19 24 -40 48
-45 54 -6 6 -51 61 -100 121 -49 61 -92 112 -95 115 -3 3 -76 91 -162 195
-191 233 -463 561 -492 595 -49 58 -96 117 -96 123 0 3 24 34 52 69 69 83 74
88 160 193 190 231 462 561 553 670 119 144 361 436 393 476 l23 28 -168 3
c-92 2 -301 2 -464 0z"/>
<path d="M5178 5300 l-216 -5 21 -26 c12 -14 127 -154 256 -310 129 -156 237
-286 241 -289 3 -3 66 -79 140 -169 197 -240 337 -410 380 -461 147 -177 144
-171 130 -194 -7 -12 -45 -59 -84 -106 -96 -116 -207 -250 -228 -275 -9 -11
-88 -106 -175 -211 -87 -105 -273 -329 -413 -498 -140 -170 -258 -313 -262
-320 -5 -8 111 -11 455 -11 l461 1 64 79 c78 98 77 97 132 170 25 33 52 69 62
80 9 11 96 124 194 250 98 127 214 277 259 334 44 57 113 147 153 200 41 53
84 107 95 121 12 14 49 61 82 105 33 44 64 83 69 86 11 8 23 -9 -216 300 -109
140 -326 421 -483 624 -158 204 -291 377 -298 385 -7 8 -34 43 -61 77 l-48 62
-247 3 c-135 2 -343 1 -463 -2z"/>
</g>
</svg>
