<svg xmlns="http://www.w3.org/2000/svg" width="31.498" height="31.492" viewBox="0 0 31.498 31.492">
  <path id="Icon_awesome-blogger" data-name="Icon awesome-blogger" d="M11.419,13.781c.337-.345.436-.359,2.559-.359,1.913,0,1.976.007,2.257.148a.956.956,0,0,1,.584.956,1.042,1.042,0,0,1-.534.942c-.2.127-.316.134-2.187.148a19.3,19.3,0,0,1-2.215-.056,1.113,1.113,0,0,1-.464-1.779Zm4.317,6.645c-3.79,0-3.923.014-4.233.288a1.243,1.243,0,0,0-.359.977,1.216,1.216,0,0,0,.647.844,22.705,22.705,0,0,0,3.959.084l3.368-.042.647-.105a1.077,1.077,0,0,0,.218-1.716c-.373-.33-.352-.33-4.247-.33Zm15.708,9.148a4.691,4.691,0,0,1-3.593,4.043c-.506.127-.682.134-12.157.127-11.1,0-11.665-.007-12.094-.127a5.045,5.045,0,0,1-1.568-.7,5.679,5.679,0,0,1-1.2-1.153,6.044,6.044,0,0,1-.7-1.547C.007,29.742,0,29.552,0,18.021,0,6.553,0,6.307.127,5.808a4.742,4.742,0,0,1,3.6-3.459c.513-.112,23.351-.134,23.906-.021A4.7,4.7,0,0,1,30.98,4.887c.541,1.076.492-.105.513,12.7C31.507,25.727,31.493,29.152,31.444,29.573Zm-6-13.022a1.251,1.251,0,0,0-.541-.809,5.779,5.779,0,0,0-1.09-.12c-.872-.042-.97-.056-1.252-.218-.436-.253-.555-.534-.562-1.287a5.594,5.594,0,0,0-1.779-3.973A6.618,6.618,0,0,0,17.36,8.381,15.2,15.2,0,0,0,14.6,8.255c-3.016-.035-3.691.028-4.718.436a6.207,6.207,0,0,0-3.755,4.387A30.531,30.531,0,0,0,6,17.6c-.028,4.416,0,5.07.281,5.941a6.136,6.136,0,0,0,4.542,4.106c.647.12,8.592.148,9.4.035a5.823,5.823,0,0,0,3.565-1.821,5.948,5.948,0,0,0,1.533-2.707,48.022,48.022,0,0,0,.12-6.6Z" transform="translate(0 -2.253)" fill="#fc4f08"/>
</svg>
