<svg xmlns="http://www.w3.org/2000/svg" width="20.583" height="25.332" viewBox="0 0 20.583 25.332">
  <g id="Group_12349" data-name="Group 12349" transform="translate(-1223.08 -1713)">
    <g id="Group_674" data-name="Group 674" transform="translate(1223.08 1713)">
      <g id="Group_673" data-name="Group 673" transform="translate(0)">
        <path id="Path_507" data-name="Path 507" d="M66.6,3.167H62.249V2.375A2.378,2.378,0,0,0,59.875,0H56.708a2.378,2.378,0,0,0-2.375,2.375v.792H49.979A1.981,1.981,0,0,0,48,5.146V7.916a.792.792,0,0,0,.792.792h.433l.684,14.362a2.372,2.372,0,0,0,2.372,2.262H64.3a2.372,2.372,0,0,0,2.372-2.262l.684-14.362h.433a.792.792,0,0,0,.792-.792V5.146A1.981,1.981,0,0,0,66.6,3.167ZM55.916,2.375a.793.793,0,0,1,.792-.792h3.167a.793.793,0,0,1,.792.792v.792h-4.75ZM49.583,5.146a.4.4,0,0,1,.4-.4H66.6a.4.4,0,0,1,.4.4V7.125H49.583ZM65.093,23a.791.791,0,0,1-.791.754H52.28A.791.791,0,0,1,51.49,23l-.68-14.287H65.773Z" transform="translate(-48 0)" fill="#f97141"/>
        <path id="Path_508" data-name="Path 508" d="M240.792,219.875a.792.792,0,0,0,.792-.792V208.792a.792.792,0,0,0-1.583,0v10.291A.792.792,0,0,0,240.792,219.875Z" transform="translate(-230.5 -197.709)" fill="#f97141"/>
        <path id="Path_509" data-name="Path 509" d="M320.792,219.875a.792.792,0,0,0,.792-.792V208.792a.792.792,0,0,0-1.583,0v10.291A.792.792,0,0,0,320.792,219.875Z" transform="translate(-306.542 -197.709)" fill="#f97141"/>
        <path id="Path_510" data-name="Path 510" d="M160.792,219.875a.792.792,0,0,0,.792-.792V208.792a.792.792,0,0,0-1.583,0v10.291A.792.792,0,0,0,160.792,219.875Z" transform="translate(-154.459 -197.709)" fill="#f97141"/>
      </g>
    </g>
  </g>
</svg>
