<svg xmlns="http://www.w3.org/2000/svg" width="20.564" height="20.564" viewBox="0 0 20.564 20.564">
  <g id="Group_12348" data-name="Group 12348" transform="translate(-1220.313 -1641)">
    <g id="Icon_feather-edit" data-name="Icon feather-edit" transform="translate(1220.313 1641)">
      <path id="Path_507" data-name="Path 507" d="M17.3,23.093H4.289A2.792,2.792,0,0,1,1.5,20.3V7.289A2.792,2.792,0,0,1,4.289,4.5H10.8a.93.93,0,1,1,0,1.859H4.289a.931.931,0,0,0-.93.93V20.3a.931.931,0,0,0,.93.93H17.3a.931.931,0,0,0,.93-.93V13.8a.93.93,0,0,1,1.859,0V20.3A2.792,2.792,0,0,1,17.3,23.093Z" transform="translate(-1.5 -2.528)" fill="#4c4c4c"/>
      <path id="Path_508" data-name="Path 508" d="M22.585,1.318a2.9,2.9,0,0,1,2.052,4.953L15.805,15.1a.93.93,0,0,1-.432.245l-3.719.93a.93.93,0,0,1-1.127-1.127l.93-3.719A.93.93,0,0,1,11.7,11l8.831-8.831A2.883,2.883,0,0,1,22.585,1.318ZM14.673,13.606l8.649-8.649a1.042,1.042,0,0,0-1.474-1.474L13.2,12.132,12.707,14.1Z" transform="translate(-4.922 -1.318)" fill="#4c4c4c"/>
    </g>
  </g>
</svg>
