<svg xmlns="http://www.w3.org/2000/svg" width="31.68" height="31.68" viewBox="0 0 31.68 31.68">
  <path id="Icon_awesome-facebook-square" data-name="Icon awesome-facebook-square" d="M28.285,2.25H3.394A3.394,3.394,0,0,0,0,5.644V30.535A3.394,3.394,0,0,0,3.394,33.93H13.1V23.159H8.645V18.09H13.1V14.226c0-4.395,2.616-6.822,6.624-6.822a26.989,26.989,0,0,1,3.926.342v4.314H21.438A2.535,2.535,0,0,0,18.58,14.8V18.09h4.864l-.778,5.069H18.58V33.93h9.705a3.394,3.394,0,0,0,3.394-3.394V5.644A3.394,3.394,0,0,0,28.285,2.25Z" transform="translate(0 -2.25)" fill="#4267b2"/>
</svg>
