<svg xmlns="http://www.w3.org/2000/svg" xmlns:xlink="http://www.w3.org/1999/xlink" width="31.025" height="31.025" viewBox="0 0 31.025 31.025">
  <defs>
    <clipPath id="clip-path">
      <rect id="Rectangle_83" data-name="Rectangle 83" width="31.025" height="31.025" rx="3" transform="translate(0)" fill="#34444e" opacity="0.27"/>
    </clipPath>
  </defs>
  <g id="Mask_Group_2" data-name="Mask Group 2" clip-path="url(#clip-path)">
    <g id="Group_274" data-name="Group 274" transform="translate(-0.358)">
      <g id="Group_273" data-name="Group 273" transform="translate(0)">
        <g id="Group_272" data-name="Group 272" transform="translate(0)">
          <g id="Group_271" data-name="Group 271">
            <path id="Path_78" data-name="Path 78" d="M32.422,0H3.184a.8.8,0,0,0-.8.8V30.3a.8.8,0,0,0,.8.8H12.9V31.1a.716.716,0,0,0,.79-.666c.04-1.08.012-2.163.012-3.207a22.259,22.259,0,0,1-2.269.093,3.712,3.712,0,0,1-3.531-2.385,4.555,4.555,0,0,0-1.867-2.294,1.889,1.889,0,0,1-.445-.4c-.169-.2-.137-.4.129-.453a2.222,2.222,0,0,1,.827-.043,3.476,3.476,0,0,1,2.312,1.716,3.5,3.5,0,0,0,4.653,1.45.457.457,0,0,0,.259-.249A4.03,4.03,0,0,1,14.782,22.6c-.637-.118-1.227-.2-1.8-.339A7.247,7.247,0,0,1,8.721,19.8a7.6,7.6,0,0,1-1.489-3.838,7.207,7.207,0,0,1,1.475-6,.472.472,0,0,0,.083-.38,6.127,6.127,0,0,1,.054-3.672c.2-.64.251-.672.9-.582.04.005.079.015.118.022a9.939,9.939,0,0,1,3.545,1.53.793.793,0,0,0,.54.109A16.6,16.6,0,0,1,21.9,7a.8.8,0,0,0,.506-.093c.6-.315,1.181-.682,1.792-.981a4.956,4.956,0,0,1,2.265-.595.537.537,0,0,1,.406.262,6.081,6.081,0,0,1,.2,3.931.729.729,0,0,0,.1.487A13.284,13.284,0,0,1,28.319,12.1a8.788,8.788,0,0,1-.534,6.629,6.481,6.481,0,0,1-4.634,3.446c-.68.172-1.377.276-2.111.421a4.631,4.631,0,0,1,1.1,3.515c-.018,1.325-.013,2.65-.014,3.975,0,.642.28,1,.769,1.017,0,0,10.334,0,10.334,0V.8A.8.8,0,0,0,32.422,0Z" transform="translate(-2.381)" fill="#34444e"/>
          </g>
        </g>
      </g>
    </g>
  </g>
</svg>
