<svg id="Group_12275" data-name="Group 12275" xmlns="http://www.w3.org/2000/svg" width="38.399" height="38.399" viewBox="0 0 38.399 38.399">
  <circle id="Ellipse_122" data-name="Ellipse 122" cx="18.245" cy="18.245" r="18.245" transform="translate(0.969 1.815)" fill="#f1f2f2"/>
  <g id="Group_12274" data-name="Group 12274" transform="translate(0)">
    <path id="Path_11368" data-name="Path 11368" d="M19.2,0A19.274,19.274,0,0,0,0,19.2c0,9,6.314,17.173,14.7,19.2V32.047a4.623,4.623,0,0,1-5.182-2.305c-.436-.736-1.209-1.534-2.016-1.475l-.2-2.241a4.627,4.627,0,0,1,4.148,2.567A2.488,2.488,0,0,0,12.9,29.827a3.024,3.024,0,0,0,1.889-.164,5.273,5.273,0,0,1,1.323-2.705h0c-5-.746-6.994-3.4-7.785-5.493A8.81,8.81,0,0,1,9.69,13.014a.3.3,0,0,0,.076-.233A7.365,7.365,0,0,1,9.99,7.865c.981.29,1.14-.292,4.261,1.6l.539.324c.226.134.155.058.38.041A16.294,16.294,0,0,1,19.2,9.267a16.364,16.364,0,0,1,4.085.581l.175.018c-.015,0,.047-.011.153-.074,3.9-2.361,3.758-1.589,4.8-1.929a7.49,7.49,0,0,1,.219,4.919c-.113.349,3.379,3.547,1.443,8.681-.791,2.095-2.784,4.748-7.785,5.494h0c.641.977,1.411,1.5,1.407,3.512V38.4c8.385-2.026,14.7-10.2,14.7-19.2A19.274,19.274,0,0,0,19.2,0Zm0,0"/>
  </g>
</svg>
