<svg xmlns="http://www.w3.org/2000/svg" width="31.68" height="31.68" viewBox="0 0 31.68 31.68">
  <path id="Icon_awesome-linkedin" data-name="Icon awesome-linkedin" d="M29.417,2.25H2.256A2.273,2.273,0,0,0,0,4.534V31.646A2.273,2.273,0,0,0,2.256,33.93H29.417a2.279,2.279,0,0,0,2.263-2.284V4.534A2.279,2.279,0,0,0,29.417,2.25ZM9.575,29.4h-4.7V14.285h4.7V29.4ZM7.227,12.221A2.722,2.722,0,1,1,9.949,9.5,2.724,2.724,0,0,1,7.227,12.221ZM27.175,29.4h-4.7V22.05c0-1.754-.035-4.009-2.44-4.009-2.447,0-2.821,1.909-2.821,3.882V29.4h-4.7V14.285h4.5V16.35h.064a4.946,4.946,0,0,1,4.448-2.44c4.752,0,5.636,3.133,5.636,7.206Z" transform="translate(0 -2.25)" fill="#0e76a8"/>
</svg>
