<svg id="Group_12280" data-name="Group 12280" xmlns="http://www.w3.org/2000/svg" width="38.399" height="38.399" viewBox="0 0 38.399 38.399">
  <g id="Group_12279" data-name="Group 12279">
    <path id="Path_11370" data-name="Path 11370" d="M19.2,0A19.2,19.2,0,1,1,0,19.2,19.2,19.2,0,0,1,19.2,0Z" fill="#0e76a8"/>
    <path id="Path_11371" data-name="Path 11371" d="M81.952,89.61h3.6V77.627h-3.6Zm14.006-12.4a5.4,5.4,0,0,0-4.413,2.044V77.588H87.937V89.61h3.608v-6.5a2.854,2.854,0,0,1,2.836-2.714c1.577,0,1.966,1.34,1.966,2.681v6.534h3.6v-6.8C99.941,78.083,97.7,77.212,95.958,77.212ZM83.733,76.43a1.8,1.8,0,1,0-1.8-1.8A1.8,1.8,0,0,0,83.733,76.43Z" transform="translate(-71.133 -63.23)" fill="#fff"/>
  </g>
</svg>
