<svg xmlns="http://www.w3.org/2000/svg" width="31.68" height="31.68" viewBox="0 0 31.68 31.68">
  <path id="Icon_awesome-twitter-square" data-name="Icon awesome-twitter-square" d="M28.285,2.25H3.394A3.4,3.4,0,0,0,0,5.644V30.535A3.4,3.4,0,0,0,3.394,33.93H28.285a3.4,3.4,0,0,0,3.394-3.394V5.644A3.4,3.4,0,0,0,28.285,2.25ZM24.827,13.479c.014.2.014.4.014.6a13.105,13.105,0,0,1-13.2,13.2A13.134,13.134,0,0,1,4.526,25.2a9.771,9.771,0,0,0,1.117.057,9.3,9.3,0,0,0,5.756-1.98,4.644,4.644,0,0,1-4.335-3.217,5,5,0,0,0,2.093-.085,4.638,4.638,0,0,1-3.712-4.554V15.36a4.635,4.635,0,0,0,2.093.587,4.628,4.628,0,0,1-2.065-3.861A4.58,4.58,0,0,1,6.1,9.746a13.169,13.169,0,0,0,9.56,4.851,4.648,4.648,0,0,1,7.913-4.236,9.088,9.088,0,0,0,2.942-1.117A4.626,4.626,0,0,1,24.481,11.8a9.229,9.229,0,0,0,2.673-.721A9.762,9.762,0,0,1,24.827,13.479Z" transform="translate(0 -2.25)" fill="#1da1f2"/>
</svg>
