<svg id="Group_12278" data-name="Group 12278" xmlns="http://www.w3.org/2000/svg" width="37.772" height="37.772" viewBox="0 0 37.772 37.772">
  <g id="Group_12277" data-name="Group 12277" transform="translate(0 0)">
    <circle id="Ellipse_123" data-name="Ellipse 123" cx="18.886" cy="18.886" r="18.886" transform="translate(0)" fill="#55acee"/>
    <g id="Group_12276" data-name="Group 12276" transform="translate(8.451 11.456)">
      <path id="Path_11369" data-name="Path 11369" d="M47.106,36.145a9.007,9.007,0,0,1-2.593.71,4.527,4.527,0,0,0,1.985-2.5,9.037,9.037,0,0,1-2.867,1.1,4.518,4.518,0,0,0-7.693,4.118,12.815,12.815,0,0,1-9.3-4.717,4.519,4.519,0,0,0,1.4,6.027,4.482,4.482,0,0,1-2.045-.565c0,.019,0,.038,0,.057A4.517,4.517,0,0,0,29.608,44.8a4.532,4.532,0,0,1-2.038.078,4.519,4.519,0,0,0,4.217,3.135A9.113,9.113,0,0,1,25.1,49.881,12.838,12.838,0,0,0,44.867,39.065c0-.2,0-.391-.013-.584a9.154,9.154,0,0,0,2.253-2.336Z" transform="translate(-25.103 -34.028)" fill="#f1f2f2"/>
    </g>
  </g>
</svg>
