<svg id="Group_633" data-name="Group 633" xmlns="http://www.w3.org/2000/svg" width="27.62" height="13.81" viewBox="0 0 27.62 13.81">
  <path id="Path_289" data-name="Path 289" d="M669.27,865.1h-3.452a4.6,4.6,0,0,1,0-9.207h3.452a1.151,1.151,0,0,0,0-2.3h-3.452a6.9,6.9,0,1,0,0,13.81h3.452a1.151,1.151,0,0,0,0-2.3Z" transform="translate(-658.913 -853.588)" fill="#34444e"/>
  <path id="Path_290" data-name="Path 290" d="M684.516,853.588h-3.452a1.151,1.151,0,1,0,0,2.3h3.452a4.6,4.6,0,1,1,0,9.207h-3.452a1.151,1.151,0,1,0,0,2.3h3.452a6.9,6.9,0,1,0,0-13.81Z" transform="translate(-663.801 -853.588)" fill="#34444e"/>
  <path id="Path_291" data-name="Path 291" d="M669.413,862.239a1.151,1.151,0,0,0,1.151,1.151h9.207a1.151,1.151,0,0,0,0-2.3h-9.207A1.151,1.151,0,0,0,669.413,862.239Z" transform="translate(-661.357 -855.334)" fill="#34444e"/>
</svg>
