<svg xmlns="http://www.w3.org/2000/svg" viewBox="0 0 297.63 89.3" fill="#999999"><path d="M61.3,45.9a.9.9,0,0,1-.5-.1,1.78,1.78,0,0,1-1.1-.8,2.2,2.2,0,0,1-.2-1.4,1.71,1.71,0,0,1,1.7-1.3.9.9,0,0,1,.5.1A1.83,1.83,0,0,1,63,44.6a1.71,1.71,0,0,1-1.7,1.3Z" transform="translate(0.03)"/><path d="M60.8,45.8a1.77,1.77,0,1,0-1.2-2.2A1.73,1.73,0,0,0,60.8,45.8Z" transform="translate(0.03)"/><path d="M58.8,37.7a1.71,1.71,0,0,1-1.7-1.3,1.75,1.75,0,0,1,1.3-2.2c.2,0,.3-.1.5-.1a1.71,1.71,0,0,1,1.7,1.3,1.75,1.75,0,0,1-1.3,2.2,1.09,1.09,0,0,1-.5.1Z" transform="translate(0.03)"/><path d="M59.2,37.6A1.77,1.77,0,1,0,57,36.4,1.81,1.81,0,0,0,59.2,37.6Z" transform="translate(0.03)"/><path d="M52.5,31.8a2.11,2.11,0,0,1-1.3-.5,1.54,1.54,0,0,1-.5-1.3,2.11,2.11,0,0,1,.5-1.3,1.9,1.9,0,0,1,1.3-.5,2.11,2.11,0,0,1,1.3.5,1.9,1.9,0,0,1,.5,1.3,1.71,1.71,0,0,1-1.8,1.8Z" transform="translate(0.03)"/><path d="M51.3,28.8a1.77,1.77,0,1,0,2.5,0A1.75,1.75,0,0,0,51.3,28.8Z" transform="translate(0.03)"/><path d="M44.1,29.9a.9.9,0,0,1-.5-.1,1.83,1.83,0,0,1-1.3-2.2A1.71,1.71,0,0,1,44,26.3a.9.9,0,0,1,.5.1,1.55,1.55,0,0,1,1.1.8,2.2,2.2,0,0,1,.2,1.4,1.65,1.65,0,0,1-1.7,1.3Z" transform="translate(0.03)"/><path d="M44.6,26.4a1.77,1.77,0,1,0,1.2,2.2A1.73,1.73,0,0,0,44.6,26.4Z" transform="translate(0.03)"/><path d="M35.9,32.3A1.71,1.71,0,0,1,34.2,31a1.75,1.75,0,0,1,1.3-2.2c.2,0,.3-.1.5-.1A1.71,1.71,0,0,1,37.7,30a1.75,1.75,0,0,1-1.3,2.2A.9.9,0,0,1,35.9,32.3Z" transform="translate(0.03)"/><path d="M36.4,32.3a1.77,1.77,0,1,0-2.2-1.2A2,2,0,0,0,36.4,32.3Z" transform="translate(0.03)"/><path d="M30,38.6a2.11,2.11,0,0,1-1.3-.5,1.9,1.9,0,0,1-.5-1.3,2.11,2.11,0,0,1,.5-1.3A1.9,1.9,0,0,1,30,35a2.11,2.11,0,0,1,1.3.5,1.75,1.75,0,0,1,0,2.5A1.61,1.61,0,0,1,30,38.6Z" transform="translate(0.03)"/><path d="M28.8,35.6a1.77,1.77,0,1,0,2.5,0A1.75,1.75,0,0,0,28.8,35.6Z" transform="translate(0.03)"/><path d="M28.1,47a.9.9,0,0,1-.5-.1,1.83,1.83,0,0,1-1.3-2.2A1.71,1.71,0,0,1,28,43.4a.9.9,0,0,1,.5.1,1.77,1.77,0,0,1-.4,3.5Z" transform="translate(0.03)"/><path d="M28.5,43.5a1.77,1.77,0,1,0,1.2,2.2A1.66,1.66,0,0,0,28.5,43.5Z" transform="translate(0.03)"/><path d="M30.5,55.2a1.71,1.71,0,0,1-1.7-1.3,1.75,1.75,0,0,1,1.3-2.2c.2,0,.3-.1.5-.1a1.71,1.71,0,0,1,1.7,1.3A1.75,1.75,0,0,1,31,55.1a.75.75,0,0,1-.5.1Z" transform="translate(0.03)"/><path d="M30.1,51.7a1.77,1.77,0,1,0,2.2,1.2A1.91,1.91,0,0,0,30.1,51.7Z" transform="translate(0.03)"/><path d="M36.8,61.1a2.11,2.11,0,0,1-1.3-.5,1.9,1.9,0,0,1-.5-1.3,2.11,2.11,0,0,1,.5-1.3,1.9,1.9,0,0,1,1.3-.5,2.11,2.11,0,0,1,1.3.5,1.85,1.85,0,0,1-1.3,3.1Z" transform="translate(0.03)"/><path d="M38.1,60.5a1.77,1.77,0,1,0-2.5,0A1.75,1.75,0,0,0,38.1,60.5Z" transform="translate(0.03)"/><path d="M45.2,63.1a.9.9,0,0,1-.5-.1,1.55,1.55,0,0,1-1.1-.8,2.2,2.2,0,0,1-.2-1.4,1.71,1.71,0,0,1,1.7-1.3.9.9,0,0,1,.5.1,1.78,1.78,0,0,1,1.1.8,2.2,2.2,0,0,1,.2,1.4,1.83,1.83,0,0,1-1.7,1.3Z" transform="translate(0.03)"/><path d="M44.7,63a1.77,1.77,0,1,0-1.2-2.2A1.81,1.81,0,0,0,44.7,63Z" transform="translate(0.03)"/><path d="M53.4,60.6a1.71,1.71,0,0,1-1.7-1.3,1.76,1.76,0,0,1,.2-1.4,1.55,1.55,0,0,1,1.1-.8c.2,0,.3-.1.5-.1a1.71,1.71,0,0,1,1.7,1.3,1.75,1.75,0,0,1-1.3,2.2.9.9,0,0,1-.5.1Z" transform="translate(0.03)"/><path d="M53,57.1a1.77,1.77,0,1,0,2.2,1.2A1.81,1.81,0,0,0,53,57.1Z" transform="translate(0.03)"/><path d="M59.3,54.3a2.11,2.11,0,0,1-1.3-.5,1.75,1.75,0,0,1,0-2.5,1.9,1.9,0,0,1,1.3-.5,2.11,2.11,0,0,1,1.3.5,1.75,1.75,0,0,1,0,2.5A2.11,2.11,0,0,1,59.3,54.3Z" transform="translate(0.03)"/><path d="M60.6,53.8a1.77,1.77,0,1,0-2.5,0A2,2,0,0,0,60.6,53.8Z" transform="translate(0.03)"/><path d="M69.6,46.8a.75.75,0,0,1-.5-.1,2.16,2.16,0,0,1-1.5-2.6,2.13,2.13,0,0,1,2-1.6.75.75,0,0,1,.5.1,2.16,2.16,0,0,1,1.5,2.6,2,2,0,0,1-2,1.6Z" transform="translate(0.03)"/><path d="M70.2,42.7a2.06,2.06,0,1,0,1.5,2.5A2.2,2.2,0,0,0,70.2,42.7Z" transform="translate(0.03)"/><path d="M66.3,34.3a2,2,0,0,1-2-1.6,2.26,2.26,0,0,1,.2-1.6,2.21,2.21,0,0,1,1.3-1,4.33,4.33,0,0,0,.5-.1,2,2,0,0,1,2,1.6,2.26,2.26,0,0,1-.2,1.6,2.21,2.21,0,0,1-1.3,1,.75.75,0,0,1-.5.1Z" transform="translate(0.03)"/><path d="M66.8,34.2a2.06,2.06,0,1,0-2.5-1.5A2,2,0,0,0,66.8,34.2Z" transform="translate(0.03)"/><path d="M57.2,25.2a2.1,2.1,0,1,1,1.5-3.6,2.17,2.17,0,0,1,0,3,2,2,0,0,1-1.5.6Z" transform="translate(0.03)"/><path d="M55.7,24.5a2.05,2.05,0,1,0,0-2.9A2.05,2.05,0,0,0,55.7,24.5Z" transform="translate(0.03)"/><path d="M44.7,21.8a.75.75,0,0,1-.5-.1,2.16,2.16,0,0,1-1.5-2.6,2.13,2.13,0,0,1,2-1.6.75.75,0,0,1,.5.1,2.16,2.16,0,0,1,1.5,2.6,2,2,0,0,1-2,1.6Z" transform="translate(0.03)"/><path d="M44.2,21.7a2.06,2.06,0,1,0-1.5-2.5A2.06,2.06,0,0,0,44.2,21.7Z" transform="translate(0.03)"/><path d="M32.2,25.1a2,2,0,0,1-2-1.6,2.16,2.16,0,0,1,1.5-2.6,4.33,4.33,0,0,0,.5-.1,2,2,0,0,1,2,1.6A2.16,2.16,0,0,1,32.7,25,.75.75,0,0,1,32.2,25.1Z" transform="translate(0.03)"/><path d="M31.7,21a2.06,2.06,0,1,0,2.5,1.5A2.06,2.06,0,0,0,31.7,21Z" transform="translate(0.03)"/><path d="M23.1,34.2a2.05,2.05,0,1,1,1.5-.6,2.2,2.2,0,0,1-1.5.6Z" transform="translate(0.03)"/><path d="M21.6,33.6a2.05,2.05,0,1,0,0-2.9A2.05,2.05,0,0,0,21.6,33.6Z" transform="translate(0.03)"/><path d="M19.7,46.7a.75.75,0,0,1-.5-.1A2.16,2.16,0,0,1,17.7,44a2.13,2.13,0,0,1,2-1.6.75.75,0,0,1,.5.1,2.16,2.16,0,0,1,1.5,2.6,2,2,0,0,1-2,1.6Z" transform="translate(0.03)"/><path d="M19.2,46.6a2.06,2.06,0,1,0-1.5-2.5A2.06,2.06,0,0,0,19.2,46.6Z" transform="translate(0.03)"/><path d="M23,59.2a2,2,0,0,1-2-1.6A2.16,2.16,0,0,1,22.5,55a4.33,4.33,0,0,0,.5-.1,2,2,0,0,1,2,1.6,2.16,2.16,0,0,1-1.5,2.6.75.75,0,0,1-.5.1Z" transform="translate(0.03)"/><path d="M22.5,55.1A2.06,2.06,0,1,0,25,56.6,2.06,2.06,0,0,0,22.5,55.1Z" transform="translate(0.03)"/><path d="M32.1,68.3a2.1,2.1,0,1,1,1.5-3.6,2.17,2.17,0,0,1,0,3,2,2,0,0,1-1.5.6Z" transform="translate(0.03)"/><path d="M33.6,64.8a2.05,2.05,0,1,0,0,2.9A2.05,2.05,0,0,0,33.6,64.8Z" transform="translate(0.03)"/><path d="M44.6,71.7a.75.75,0,0,1-.5-.1,2.12,2.12,0,0,1-1.3-1,1.84,1.84,0,0,1-.2-1.6,2.13,2.13,0,0,1,2-1.6.75.75,0,0,1,.5.1,2.12,2.12,0,0,1,1.3,1,1.84,1.84,0,0,1,.2,1.6,2,2,0,0,1-2,1.6Z" transform="translate(0.03)"/><path d="M45.1,67.6a2.06,2.06,0,1,0,1.5,2.5A2.11,2.11,0,0,0,45.1,67.6Z" transform="translate(0.03)"/><path d="M57.1,68.4a2,2,0,0,1-2-1.6,2.26,2.26,0,0,1,.2-1.6,2.21,2.21,0,0,1,1.3-1,4.33,4.33,0,0,0,.5-.1,2,2,0,0,1,2,1.6,2.16,2.16,0,0,1-1.5,2.6.75.75,0,0,1-.5.1Z" transform="translate(0.03)"/><path d="M57.6,68.3a2.06,2.06,0,1,0-2.5-1.5A2.06,2.06,0,0,0,57.6,68.3Z" transform="translate(0.03)"/><path d="M66.3,59.3a2,2,0,0,1-1.5-.6,2.17,2.17,0,0,1,0-3,2.17,2.17,0,0,1,3,0,2.17,2.17,0,0,1,0,3,2.4,2.4,0,0,1-1.5.6Z" transform="translate(0.03)"/><path d="M67.7,55.7a2.05,2.05,0,1,0,0,2.9A2.05,2.05,0,0,0,67.7,55.7Z" transform="translate(0.03)"/><path d="M78.2,51.2a1.7,1.7,0,0,1-.7-.1,2.73,2.73,0,0,1-1.9-3.3,2.67,2.67,0,0,1,2.6-2,1.7,1.7,0,0,1,.7.1,2.82,2.82,0,0,1,1.9,3.3,2.67,2.67,0,0,1-2.6,2Z" transform="translate(0.03)"/><path d="M77.5,51.1a2.69,2.69,0,1,0-1.9-3.3A2.73,2.73,0,0,0,77.5,51.1Z" transform="translate(0.03)"/><path d="M75.6,33.9a2.67,2.67,0,0,1-2.6-2,2.73,2.73,0,0,1,1.9-3.3,1.7,1.7,0,0,1,.7-.1,2.67,2.67,0,0,1,2.6,2,2.73,2.73,0,0,1-1.9,3.3,1.7,1.7,0,0,1-.7.1Z" transform="translate(0.03)"/><path d="M78.2,30.6a2.69,2.69,0,1,0-1.9,3.3A2.78,2.78,0,0,0,78.2,30.6Z" transform="translate(0.03)"/><path d="M64.8,20.3a2.73,2.73,0,1,1,1.9-.8A2.93,2.93,0,0,1,64.8,20.3Z" transform="translate(0.03)"/><path d="M66.6,15.7a2.69,2.69,0,1,0-3.8,3.8,2.78,2.78,0,0,0,3.8,0A2.6,2.6,0,0,0,66.6,15.7Z" transform="translate(0.03)"/><path d="M48.5,13.8a1.7,1.7,0,0,1-.7-.1,2.73,2.73,0,0,1-1.9-3.3,2.67,2.67,0,0,1,2.6-2,1.7,1.7,0,0,1,.7.1,2.33,2.33,0,0,1,1.6,1.3,2.36,2.36,0,0,1,.3,2,2.67,2.67,0,0,1-2.6,2Z" transform="translate(0.03)"/><path d="M47.8,13.7a2.69,2.69,0,1,0-1.9-3.3A2.77,2.77,0,0,0,47.8,13.7Z" transform="translate(0.03)"/><path d="M31.2,16.4a2.67,2.67,0,0,1-2.6-2,2.73,2.73,0,0,1,1.9-3.3,1.7,1.7,0,0,1,.7-.1,2.67,2.67,0,0,1,2.6,2,2.36,2.36,0,0,1-.3,2,2.93,2.93,0,0,1-1.6,1.3A1.48,1.48,0,0,1,31.2,16.4Z" transform="translate(0.03)"/><path d="M31.9,16.3a2.69,2.69,0,1,0-3.3-1.9A2.78,2.78,0,0,0,31.9,16.3Z" transform="translate(0.03)"/><path d="M17.6,27.3a2.73,2.73,0,0,1-1.9-.8,2.69,2.69,0,0,1,0-3.8,2.69,2.69,0,1,1,1.9,4.6Z" transform="translate(0.03)"/><path d="M19.5,22.7a2.69,2.69,0,0,0-3.8,3.8,2.69,2.69,0,1,0,3.8-3.8Z" transform="translate(0.03)"/><path d="M11.2,43.5a1.7,1.7,0,0,1-.7-.1,2.33,2.33,0,0,1-1.6-1.3,2.36,2.36,0,0,1-.3-2,2.67,2.67,0,0,1,2.6-2,1.7,1.7,0,0,1,.7.1,2.73,2.73,0,0,1,1.9,3.3,2.76,2.76,0,0,1-2.6,2Z" transform="translate(0.03)"/><path d="M11.8,38.2a2.73,2.73,0,0,0-3.3,1.9,2.8,2.8,0,0,0,2,3.3,2.73,2.73,0,0,0,3.3-1.9A2.8,2.8,0,0,0,11.8,38.2Z" transform="translate(0.03)"/><path d="M13.7,60.8a2.67,2.67,0,0,1-2.6-2A2.73,2.73,0,0,1,13,55.5a1.7,1.7,0,0,1,.7-.1,2.67,2.67,0,0,1,2.6,2,2.73,2.73,0,0,1-1.9,3.3c-.2,0-.4.1-.7.1Z" transform="translate(0.03)"/><path d="M13,55.5a2.69,2.69,0,1,0,3.3,1.9A2.73,2.73,0,0,0,13,55.5Z" transform="translate(0.03)"/><path d="M24.6,74.4a2.7,2.7,0,1,1,1.9-4.6,2.78,2.78,0,0,1,0,3.8,2.36,2.36,0,0,1-1.9.8Z" transform="translate(0.03)"/><path d="M26.5,69.9a2.69,2.69,0,1,0,0,3.8A2.78,2.78,0,0,0,26.5,69.9Z" transform="translate(0.03)"/><path d="M40.8,80.9a1.7,1.7,0,0,1-.7-.1,2.73,2.73,0,0,1-1.9-3.3,2.67,2.67,0,0,1,2.6-2,1.7,1.7,0,0,1,.7.1,2.82,2.82,0,0,1,1.9,3.3,2.79,2.79,0,0,1-2.6,2Z" transform="translate(0.03)"/><path d="M41.5,75.6a2.69,2.69,0,1,0,1.9,3.3A2.69,2.69,0,0,0,41.5,75.6Z" transform="translate(0.03)"/><path d="M58.1,78.3a2.67,2.67,0,0,1-2.6-2,2.36,2.36,0,0,1,.3-2A2.93,2.93,0,0,1,57.4,73a1.7,1.7,0,0,1,.7-.1,2.67,2.67,0,0,1,2.6,2,2.73,2.73,0,0,1-1.9,3.3,2,2,0,0,1-.7.1Z" transform="translate(0.03)"/><path d="M57.4,73a2.69,2.69,0,1,0,3.3,1.9A2.73,2.73,0,0,0,57.4,73Z" transform="translate(0.03)"/><path d="M71.8,67.4a2.7,2.7,0,1,1,1.9-4.6,2.78,2.78,0,0,1,0,3.8A2.36,2.36,0,0,1,71.8,67.4Z" transform="translate(0.03)"/><path d="M73.6,66.6a2.69,2.69,0,1,0-3.8,0A2.6,2.6,0,0,0,73.6,66.6Z" transform="translate(0.03)"/><path d="M86.2,58.9a2.2,2.2,0,0,1-.8-.1,2.85,2.85,0,0,1-1.9-1.5,3.32,3.32,0,0,1-.3-2.4,3.09,3.09,0,0,1,3-2.3,2.2,2.2,0,0,1,.8.1,3,3,0,0,1,2.2,3.8,3,3,0,0,1-3,2.4Z" transform="translate(0.03)"/><path d="M87,52.8a3.1,3.1,0,1,0,2.2,3.8A3.14,3.14,0,0,0,87,52.8Z" transform="translate(0.03)"/><path d="M86.2,36.7a3.12,3.12,0,0,1-3-2.3,3.32,3.32,0,0,1,.3-2.4,3.58,3.58,0,0,1,1.9-1.5,2.2,2.2,0,0,1,.8-.1,3.12,3.12,0,0,1,3,2.3,3.32,3.32,0,0,1-.3,2.4A3.58,3.58,0,0,1,87,36.6c-.3,0-.5.1-.8.1Z" transform="translate(0.03)"/><path d="M87,36.5a3.1,3.1,0,1,0-3.8-2.2A3,3,0,0,0,87,36.5Z" transform="translate(0.03)"/><path d="M75.1,17.4a3.1,3.1,0,1,1,2.2-5.3,3.14,3.14,0,0,1,0,4.4,3.1,3.1,0,0,1-2.2.9Z" transform="translate(0.03)"/><path d="M72.9,16.5a3.11,3.11,0,1,0,0-4.4A3.14,3.14,0,0,0,72.9,16.5Z" transform="translate(0.03)"/><path d="M55.8,6.3a2.2,2.2,0,0,1-.8-.1,3,3,0,0,1-2.2-3.8,3.1,3.1,0,0,1,3-2.4,2.2,2.2,0,0,1,.8.1,3,3,0,0,1,2.2,3.8,3.1,3.1,0,0,1-3,2.4Z" transform="translate(0.03)"/><path d="M55,6.1a3.07,3.07,0,0,0,3.8-2.2,3.1,3.1,0,1,0-6-1.6A3,3,0,0,0,55,6.1Z" transform="translate(0.03)"/><path d="M33.5,6.3a3.12,3.12,0,0,1-3-2.3,3.32,3.32,0,0,1,.3-2.4A3.58,3.58,0,0,1,32.7.1a2.49,2.49,0,0,1,.8-.1,3.12,3.12,0,0,1,3,2.3,3.14,3.14,0,0,1-2.2,3.9c-.2,0-.5.1-.8.1Z" transform="translate(0.03)"/><path d="M34.3,6.1a3,3,0,0,0,2.2-3.8,3.1,3.1,0,1,0-6,1.6A3.08,3.08,0,0,0,34.3,6.1Z" transform="translate(0.03)"/><path d="M14.3,17.4a3.07,3.07,0,1,1,2.2-.9,3.1,3.1,0,0,1-2.2.9Z" transform="translate(0.03)"/><path d="M12.1,16.5a3.11,3.11,0,1,0,0-4.4A3.14,3.14,0,0,0,12.1,16.5Z" transform="translate(0.03)"/><path d="M3.1,36.7a2.2,2.2,0,0,1-.8-.1A3,3,0,0,1,.1,32.8a3.09,3.09,0,0,1,3-2.3,2.2,2.2,0,0,1,.8.1,2.85,2.85,0,0,1,1.9,1.5,3.32,3.32,0,0,1,.3,2.4,3.06,3.06,0,0,1-3,2.2Z" transform="translate(0.03)"/><path d="M3.9,30.5a3.1,3.1,0,0,0-1.6,6,3,3,0,0,0,3.8-2.2A3.08,3.08,0,0,0,3.9,30.5Z" transform="translate(0.03)"/><path d="M3.1,58.9a3.12,3.12,0,0,1-3-2.3,3.32,3.32,0,0,1,.3-2.4,3.58,3.58,0,0,1,1.9-1.5,2.2,2.2,0,0,1,.8-.1,3.12,3.12,0,0,1,3,2.3,3.32,3.32,0,0,1-.3,2.4,3.58,3.58,0,0,1-1.9,1.5,2,2,0,0,1-.8.1Z" transform="translate(0.03)"/><path d="M2.3,52.8a3.1,3.1,0,1,0,1.6,6A3.07,3.07,0,0,0,6.1,55,3,3,0,0,0,2.3,52.8Z" transform="translate(0.03)"/><path d="M14.3,78.2a3.1,3.1,0,0,1-2.2-.9,3.14,3.14,0,0,1,0-4.4,3.11,3.11,0,1,1,2.2,5.3Z" transform="translate(0.03)"/><path d="M16.5,72.9a3.11,3.11,0,1,0,0,4.4A3.14,3.14,0,0,0,16.5,72.9Z" transform="translate(0.03)"/><path d="M33.5,89.3a2.2,2.2,0,0,1-.8-.1,2.85,2.85,0,0,1-1.9-1.5,3.32,3.32,0,0,1-.3-2.4,3.09,3.09,0,0,1,3-2.3,2.2,2.2,0,0,1,.8.1,2.85,2.85,0,0,1,1.9,1.5,3.32,3.32,0,0,1,.3,2.4,2.93,2.93,0,0,1-3,2.3Z" transform="translate(0.03)"/><path d="M34.3,83.2A3.1,3.1,0,1,0,36.5,87,3,3,0,0,0,34.3,83.2Z" transform="translate(0.03)"/><path d="M55.8,89.3a3.12,3.12,0,0,1-3-2.3,3.32,3.32,0,0,1,.3-2.4A3.58,3.58,0,0,1,55,83.1a2.2,2.2,0,0,1,.8-.1,3.12,3.12,0,0,1,3,2.3,3.07,3.07,0,0,1-2.2,3.8,1.2,1.2,0,0,1-.8.2Z" transform="translate(0.03)"/><path d="M55,83.2a3.1,3.1,0,1,0,3.8,2.2A3.07,3.07,0,0,0,55,83.2Z" transform="translate(0.03)"/><path d="M75.1,78.2a3.07,3.07,0,1,1,2.2-.9,3.1,3.1,0,0,1-2.2.9Z" transform="translate(0.03)"/><path d="M77.3,72.9a3.11,3.11,0,1,0,0,4.4A3.14,3.14,0,0,0,77.3,72.9Z" transform="translate(0.03)"/><path d="M41.4,39.2h3.3c-.2.9-1.7,8-1.7,8.1,0,.4,0,.7.2.9a.86.86,0,0,0,.6.3.6.6,0,0,0,.4-.1,3.13,3.13,0,0,0,1-.5c.1-.1.2-.1.3-.2s.1-.1.1-.2l1.7-8v-.1l3.3-.1c-.1.9-1.2,6.1-1.6,8v.4a.76.76,0,0,0,.6.8c.1,0,.3.1.4.1h0a1.42,1.42,0,0,0,.6-.2,6.07,6.07,0,0,0,1-.7,7,7,0,0,0,1-.8,1.14,1.14,0,0,1,.8-.3h.4l-.6.7a19.2,19.2,0,0,1-1.5,1.4c-.5.5-1.1.9-1.7,1.4a2.62,2.62,0,0,1-1.7.5,6.88,6.88,0,0,1-1.3-.2,2.07,2.07,0,0,1-1.4-1.7c-.1.1-.2.3-.4.4a5.07,5.07,0,0,1-3.1,1.5l-.2.9.1.8-.1.2a4.33,4.33,0,0,1-.1.5c0,.4-.2.5-.6.6-.6.1-1.8.4-2.5.6a1.75,1.75,0,0,1-.5.1Z" transform="translate(0.03)"/><path d="M53.9,46.5l-2.1,2.1A11.51,11.51,0,0,1,50.1,50a3.3,3.3,0,0,1-2.9.3,2.07,2.07,0,0,1-1.4-1.7c-1,.8-2,1.8-3.5,1.9a10.46,10.46,0,0,1-.4,1.7c-.1.3-.1.5-.2.8s-.2.5-.6.6c-.9.2-2.8.7-3,.7,1.1-5,2.1-10.1,3.2-15.1h3.3c-.2.8-1.7,8-1.7,8.1-.1.9.5,1.4,1.3,1.1a5.39,5.39,0,0,0,1.3-.7c.1,0,.1-.2.1-.3.6-2.7,1.1-5.3,1.7-8,0-.1,0-.1.1-.2h3.2c-.2.8-1.3,6.1-1.7,8v.4a.76.76,0,0,0,.6.8,1.42,1.42,0,0,0,1.1-.1,6.07,6.07,0,0,0,1-.7c.3-.3.7-.5,1-.8A1.59,1.59,0,0,1,53.9,46.5Z" transform="translate(0.03)"/><polygon points="119.53 51.8 119.53 40 115.43 51.7 113.23 51.8 109.03 40 109.13 51.7 106.83 51.8 106.83 37.6 110.33 37.5 114.33 48.8 114.43 48.8 118.23 37.6 121.93 37.5 122.03 51.8 119.53 51.8"/><polygon points="133.83 51.8 133.73 37.6 136.23 37.5 136.23 51.8 133.83 51.8"/><path d="M154.4,52.1a6.39,6.39,0,0,1-2.8-.6,6.52,6.52,0,0,1-2.1-1.6,7,7,0,0,1-1.3-2.4,10.23,10.23,0,0,1,.1-6,9.21,9.21,0,0,1,1.3-2.4,6.52,6.52,0,0,1,2.1-1.6,6.09,6.09,0,0,1,2.8-.6,7.1,7.1,0,0,1,2.6.4,4.64,4.64,0,0,1,2,1.3l-1.5,1.3a5.51,5.51,0,0,0-1.4-.9,4.15,4.15,0,0,0-1.6-.3,3.45,3.45,0,0,0-1.8.5,4.89,4.89,0,0,0-1.3,1.2,7.5,7.5,0,0,0-.8,1.8,8.22,8.22,0,0,0,0,4.4,4.94,4.94,0,0,0,.8,1.8,3.74,3.74,0,0,0,1.3,1.2,3.45,3.45,0,0,0,1.8.5,3.29,3.29,0,0,0,1.7-.4,4,4,0,0,0,1.2-1l1.5,1.2a4.89,4.89,0,0,1-1.8,1.4A3.88,3.88,0,0,1,154.4,52.1Z" transform="translate(0.03)"/><path d="M177.4,51.8l-3.2-6.3h-2.1l.1,6.3-2.4.1-.1-14.2,4.9-.1a11.08,11.08,0,0,1,1.9.2,3.9,3.9,0,0,1,1.6.7,3.18,3.18,0,0,1,1.1,1.2,3.42,3.42,0,0,1,.4,1.8,3.34,3.34,0,0,1-.3,1.5,4.44,4.44,0,0,1-.8,1.1,6.07,6.07,0,0,1-1,.7,2.28,2.28,0,0,1-1.1.3l3.6,6.6h-2.6ZM172.1,44l2.1-.1a3.28,3.28,0,0,0,2.1-.6,2.2,2.2,0,0,0,.8-1.8,2.13,2.13,0,0,0-.3-1.2,2.34,2.34,0,0,0-.7-.7,3,3,0,0,0-1-.4,4.1,4.1,0,0,0-1.1-.1h-2.1V44Z" transform="translate(0.03)"/><path d="M196.6,52.1a7.63,7.63,0,0,1-2.7-.5,6.18,6.18,0,0,1-2-1.5,7,7,0,0,1-1.3-2.4,9.48,9.48,0,0,1-.4-3,9.48,9.48,0,0,1,.4-3,9,9,0,0,1,1.2-2.4,5,5,0,0,1,2-1.5,5.92,5.92,0,0,1,2.7-.5,7.63,7.63,0,0,1,2.7.5,6.18,6.18,0,0,1,2,1.5,5.53,5.53,0,0,1,1.3,2.4,9.48,9.48,0,0,1,.4,3,9.48,9.48,0,0,1-.4,3,7,7,0,0,1-1.3,2.4,4.81,4.81,0,0,1-2,1.5A6.69,6.69,0,0,1,196.6,52.1Zm0-13.2a3.29,3.29,0,0,0-1.7.4,3.45,3.45,0,0,0-1.2,1.2,4.84,4.84,0,0,0-.7,1.8,16.35,16.35,0,0,0-.2,2.2,15,15,0,0,0,.2,2.2,4.84,4.84,0,0,0,.7,1.8,3.45,3.45,0,0,0,1.2,1.2,3.06,3.06,0,0,0,1.7.4,2.73,2.73,0,0,0,1.6-.4,3.45,3.45,0,0,0,1.2-1.2,4.84,4.84,0,0,0,.7-1.8,8.2,8.2,0,0,0,.2-2.2,15,15,0,0,0-.2-2.2,7.51,7.51,0,0,0-.7-1.8,3.45,3.45,0,0,0-1.2-1.2A3.77,3.77,0,0,0,196.6,38.9Z" transform="translate(0.03)"/><polygon points="223.33 51.8 215.73 38.9 215.73 51.7 214.73 51.8 214.73 37.6 215.93 37.5 223.53 50.4 223.53 37.6 224.43 37.5 224.53 51.8 223.33 51.8"/><polygon points="223.33 51.7 215.53 38.3 215.53 51.6 214.93 51.7 214.83 37.7 215.83 37.7 223.73 51 223.63 37.7 224.33 37.7 224.33 51.7 223.33 51.7"/><path d="M244.6,51.8l-1.4-4h-6.3l-1.4,3.9h-.9l4.9-14.2h1.3l4.8,14.3Zm-7.4-4.7L243,47l-2.9-8.6Z" transform="translate(0.03)"/><path d="M244.7,51.7l-1.4-4h-6.5l-1.4,3.9h-.6l4.8-13.9h1.1l4.7,14ZM237,47.3l6.2-.1-3.1-9.1Z" transform="translate(0.03)"/><path d="M260.2,52.1a5.46,5.46,0,0,1-2.4-.4,3.64,3.64,0,0,1-1.5-1.2,3.7,3.7,0,0,1-.8-1.8,15,15,0,0,1-.2-2.2V37.6l.9-.1.1,8.8a10.87,10.87,0,0,0,.1,1.8,4.42,4.42,0,0,0,.6,1.6,3.18,3.18,0,0,0,1.2,1.1,5.71,5.71,0,0,0,4.2,0,4.26,4.26,0,0,0,1.2-1.1,4.42,4.42,0,0,0,.6-1.6,11.48,11.48,0,0,0,.1-1.9V37.5l.9-.1.1,9a15,15,0,0,1-.2,2.2,4.94,4.94,0,0,1-.8,1.8,4.43,4.43,0,0,1-1.5,1.2A6,6,0,0,1,260.2,52.1Z" transform="translate(0.03)"/><path d="M260.2,52a5.27,5.27,0,0,1-2.3-.4,4.43,4.43,0,0,1-1.5-1.2,5.31,5.31,0,0,1-.8-1.7,14.92,14.92,0,0,1-.2-2.1V37.8l.6-.1.1,8.6a12.1,12.1,0,0,0,.1,1.9,4.92,4.92,0,0,0,.6,1.7,3,3,0,0,0,1.3,1.2,4.47,4.47,0,0,0,2.2.5,4.14,4.14,0,0,0,2.1-.4,3.74,3.74,0,0,0,1.3-1.2,4.42,4.42,0,0,0,.6-1.6,12.1,12.1,0,0,0,.1-1.9V37.9l.6-.1.1,8.8a12.48,12.48,0,0,1-.2,2.1,4.2,4.2,0,0,1-2.3,2.9A8.6,8.6,0,0,1,260.2,52Z" transform="translate(0.03)"/><polygon points="278.73 51.8 278.63 38.3 275.03 38.3 275.03 37.6 283.23 37.5 283.33 38.3 279.53 38.3 279.63 51.8 278.73 51.8"/><polygon points="278.83 51.7 278.83 38.1 275.13 38.2 275.13 37.7 283.13 37.7 283.13 38.1 279.43 38.2 279.53 51.7 278.83 51.7"/><path d="M293.6,42.1a4.15,4.15,0,0,1-1.6-.3,3.81,3.81,0,0,1-1.3-.9,3.22,3.22,0,0,1-.8-1.4,5.55,5.55,0,0,1,0-3.6,6.38,6.38,0,0,1,.8-1.4,3.81,3.81,0,0,1,1.3-.9,4.42,4.42,0,0,1,3.2,0,3.81,3.81,0,0,1,1.3.9,3.22,3.22,0,0,1,.8,1.4,5.55,5.55,0,0,1,0,3.6,6.38,6.38,0,0,1-.8,1.4,3.81,3.81,0,0,1-1.3.9A4.15,4.15,0,0,1,293.6,42.1Zm0-7.9a2.77,2.77,0,0,0-1.3.3,3.59,3.59,0,0,0-1,.7,2.38,2.38,0,0,0-.6,1.1,3.18,3.18,0,0,0-.2,1.4,5.9,5.9,0,0,0,.2,1.4,3.88,3.88,0,0,0,.6,1.1,2.29,2.29,0,0,0,1,.7,3,3,0,0,0,2.6,0,3.59,3.59,0,0,0,1-.7,2.38,2.38,0,0,0,.6-1.1,5,5,0,0,0,0-2.8,3.88,3.88,0,0,0-.6-1.1,2.29,2.29,0,0,0-1-.7A2.77,2.77,0,0,0,293.6,34.2Zm1.2,6.1-1.4-2.1h-.5l.1,2-.8.1-.1-4.9,1.6-.1a2.13,2.13,0,0,1,1.2.3,1.29,1.29,0,0,1,.5,1.1,1.05,1.05,0,0,1-.4,1,2,2,0,0,1-.8.4l1.6,2.2Zm-1.9-2.8.5-.1a2,2,0,0,0,.9-.2.6.6,0,0,0,.3-.6c0-.3-.1-.5-.2-.5a1.45,1.45,0,0,0-.7-.2H293v1.6Z" transform="translate(0.03)"/><path d="M293.6,42a4.15,4.15,0,0,1-1.6-.3,3.6,3.6,0,0,1-1.2-.8,5.67,5.67,0,0,1-.8-1.3,5,5,0,0,1,0-3.4,4.11,4.11,0,0,1,.8-1.3,3.17,3.17,0,0,1,1.2-.8,4.42,4.42,0,0,1,3.2,0,3.6,3.6,0,0,1,1.2.8,5.67,5.67,0,0,1,.8,1.3,5,5,0,0,1,0,3.4,4.11,4.11,0,0,1-.8,1.3,3.17,3.17,0,0,1-1.2.8A4.15,4.15,0,0,1,293.6,42Zm0-7.9a3.19,3.19,0,0,0-1.4.3,2.54,2.54,0,0,0-1,.8,3.46,3.46,0,0,0-.7,1.2,3.89,3.89,0,0,0-.2,1.5,7.72,7.72,0,0,0,.2,1.5,7.46,7.46,0,0,0,.7,1.2,3.92,3.92,0,0,0,1,.8,3.42,3.42,0,0,0,2.8,0,2,2,0,0,0,1-.8,3.46,3.46,0,0,0,.7-1.2,3.42,3.42,0,0,0,.2-1.5,7.72,7.72,0,0,0-.2-1.5,7.46,7.46,0,0,0-.7-1.2,3.92,3.92,0,0,0-1-.8A3.19,3.19,0,0,0,293.6,34.1Zm1.2,6L293.4,38h-.8l.1,2-.5.1-.1-4.6,1.5-.1a1.8,1.8,0,0,1,1.1.3,1.05,1.05,0,0,1,.4,1,1,1,0,0,1-.4.9,2.47,2.47,0,0,1-.9.4l1.5,2.1.1.1h-.6Zm-2.1-2.4.6-.1a2,2,0,0,0,.9-.2.84.84,0,0,0,.4-.7.78.78,0,0,0-.3-.7,1.85,1.85,0,0,0-.7-.2h-.9Z" transform="translate(0.03)"/></svg>