<svg xmlns="http://www.w3.org/2000/svg" viewBox="0 0 90 28.79" fill="#999999"><path d="M79.14,6.88A10.87,10.87,0,1,0,90,17.76,10.87,10.87,0,0,0,79.14,6.88Zm0,17.28a6.41,6.41,0,1,1,6.42-6.4A6.41,6.41,0,0,1,79.12,24.16Z" transform="translate(0 0)"/><path d="M56.11,6.88a10.87,10.87,0,0,0,0,21.74h0a10.87,10.87,0,0,0,0-21.74Zm0,17.28h0a6.41,6.41,0,1,1,6.42-6.4A6.41,6.41,0,0,1,56.09,24.16Z" transform="translate(0 0)"/><path d="M44.25,17.67v.08a10.86,10.86,0,1,1-4.32-8.67V2.16a2.16,2.16,0,1,1,4.32,0h0ZM33.38,24.16A6.41,6.41,0,1,0,27,17.72h0a6.41,6.41,0,0,0,6.38,6.44Z" transform="translate(0 0)"/><path d="M10.87,7.05A10.87,10.87,0,1,0,21.74,17.92,10.87,10.87,0,0,0,10.87,7.05Zm-.1,17.32A6.41,6.41,0,0,1,4.36,18v0a6.41,6.41,0,1,1,6.41,6.41Z" /></svg>