<svg xmlns="http://www.w3.org/2000/svg" viewBox="0 0 187.09 37.17" fill="#999999"><defs><style>.cls-1{fill-rule:evenodd;}</style></defs><path class="cls-1" d="M152.92,20.63a16.49,16.49,0,0,1,3.61-10.32L170.66,14c2.07.52.56,2.2.56,2.2L157,31.46a16.46,16.46,0,0,1-4-10.83Z"/><path class="cls-1" d="M183.39,11.66a16.76,16.76,0,0,1,2.61,9,16.54,16.54,0,0,1-28.43,11.5,152.38,152.38,0,0,0,25.8-20.45l0,0ZM157.44,9.27a16.54,16.54,0,0,1,24.23.2,90.65,90.65,0,0,0-24.23-.2Z"/><path class="cls-1" d="M181.43,4.76a2.83,2.83,0,1,1,2.83,2.83,2.83,2.83,0,0,1-2.83-2.83Z"/><path class="cls-1" d="M142.64,11.35a9,9,0,0,0-5.53-1.66c-4.53,0-8.19,2.59-8.19,6.52,0,1.8.66,3,2.33,5.33s2.8,3.6,2.8,5.12a3.07,3.07,0,0,1-3.07,3,7,7,0,0,1-3.73-1.26l-2.19,3.13c1.26,1.33,4.26,2.26,6.85,2.26,4.73,0,8.46-2.66,8.46-7.19a10.48,10.48,0,0,0-2.6-6c-1.83-2.36-2.52-3.62-2.52-4.72a2.45,2.45,0,0,1,2.52-2.23,6.14,6.14,0,0,1,2.8.7l2.07-3Z"/><path class="cls-1" d="M107.59,10.09l-2.66,14.25c-1.1,7.15,2.69,9.45,8.06,9.45,4.79,0,9-2.66,10.28-9.62l2.63-14.08h-5.46l-2.26,12.08c-.8,4.43-2.17,6.76-4.26,6.76-1.47,0-3.5-.2-2.27-6.66l2.27-12.18Z"/><path class="cls-1" d="M103.11,10.09H94.72c-2.33,4.56-4.7,9.15-7.19,15.05h-.07c-.4-5.9-1-10.49-1.63-15H77.28l-4.37,23.3h5.36l2.86-17h.07c.7,6.82,1.43,12,2.2,17h4c2.62-5.09,5.26-10.22,8.35-17l.07.06-3.4,17h6.33l4.36-23.3Z"/><polygon class="cls-1" points="68.34 33.39 72.7 10.09 66.44 10.09 62.08 33.39 68.34 33.39 68.34 33.39"/><path class="cls-1" d="M68.68,2.74a2.75,2.75,0,1,1,2.75,2.75,2.75,2.75,0,0,1-2.75-2.75Z"/><polygon class="cls-1" points="53.04 33.39 56.67 14.05 62.73 14.05 63.46 10.09 45.08 10.09 44.35 14.05 50.41 14.05 46.78 33.39 53.04 33.39 53.04 33.39"/><path class="cls-1" d="M32.72,14.05h1.62a2.72,2.72,0,0,1,2.47,2.89,3.76,3.76,0,0,1-3.53,4h-.56L32,24.83c6.89.44,11.16-3.49,11.16-8.55,0-3-2.1-6.19-7.33-6.19H27.19l-4.37,23.3h6.26l3.64-19.34Z"/><path class="cls-1" d="M9.32,33.79c6.19,0,11.92-6,11.92-13.65,0-4.73-2.76-10.45-8.85-10.45C4.36,9.69,0,17.14,0,23.74c0,4.92,2.8,10.05,9.32,10.05Zm.6-4.86c-3.1,0-3.46-3.66-3.46-5.06,0-7.26,3.2-9.33,5.13-9.33,2.69,0,3.19,3.27,3.19,4.73,0,5.6-2.23,9.66-4.86,9.66Z"/></svg>