<svg xmlns="http://www.w3.org/2000/svg" viewBox="0 0 187.09 23.73" fill="#999999"><defs><style>.cls-1{fill-rule:evenodd;}</style></defs><path class="cls-1" d="M185,0a2.1,2.1,0,1,0,2.12,2.09A2.09,2.09,0,0,0,185,0Zm0,3.84a1.69,1.69,0,0,1-1.7-1.75,1.7,1.7,0,1,1,3.4,0A1.7,1.7,0,0,1,185,3.84Z"/><path class="cls-1" d="M185.31,2.24a.64.64,0,0,0,.63-.67c0-.47-.29-.68-.86-.68h-.92V3.3h.37v-1H185l.64,1H186l-.69-1.06Zm-.78-.3V1.2h.5c.25,0,.52.05.52.35s-.27.39-.58.39h-.44Z"/><path class="cls-1" d="M162.38,4.11h16.11L180.86.28h-18.6c-6.47,0-10.73,5.25-10.73,11.72s4.26,11.72,10.73,11.72h0l15.74,0,2.46-3.8H162.38c-3.72,0-6.11-2.58-6.73-6h20.28L178.37,10H155.65c.66-3.4,3.06-5.93,6.73-5.93Z"/><polygon class="cls-1" points="134.83 0.28 131 0.28 131 23.73 148.99 23.73 151.43 19.9 134.83 19.9 134.83 0.28 134.83 0.28 134.83 0.28"/><path class="cls-1" d="M109.53,4.11h16.11L128,.28h-18.6C102.94.29,98.68,5.54,98.68,12s4.26,11.72,10.73,11.72h0l15.74,0,2.46-3.8H109.53c-4.36,0-6.92-3.54-6.92-7.9s2.56-7.9,6.92-7.9Z"/><path class="cls-1" d="M82.31,1.45l-14,22.28H72.9L77.14,17H86.2l2.38-3.83H79.52l4.93-7.72L96,23.73h4.65L86.49,1.39h0a2.52,2.52,0,0,0-4.18.06Z"/><path class="cls-1" d="M59.89,14.21a7,7,0,0,0,0-13.92H40.36V23.73h4.3V4.11H59.89a3.14,3.14,0,1,1,0,6.28H47.68L61.46,23.71H67l-9.86-9.49Z"/><path class="cls-1" d="M27.33.29H10.73C4.26.29,0,5.54,0,12S4.26,23.73,10.73,23.73h16.6c6.47,0,10.73-5.25,10.73-11.72S33.8.29,27.33.29Zm0,19.62H10.73c-4.36,0-6.91-3.54-6.91-7.9s2.55-7.9,6.91-7.9h16.6c4.36,0,6.92,3.54,6.92,7.9s-2.56,7.9-6.92,7.9Z"/></svg>